<svg width="120" height="84" viewBox="0 0 120 84" fill="none" xmlns="http://www.w3.org/2000/svg">
<g clip-path="url(#clip0_119_70753)">
<g clip-path="url(#clip1_119_70753)">
<path d="M30.5923 30.0651C30.7189 30.8106 30.1965 31.474 29.6655 31.9389C28.8308 32.6685 27.7802 33.0427 26.7196 33.2917C21.4868 34.4358 15.9202 34.6329 10.8041 33.0312C9.03535 32.4613 6.20167 31.4999 6.68379 29.1512C6.7687 28.8303 6.97018 28.5698 7.19612 28.3338C7.7358 27.7812 8.28699 27.23 8.83243 26.6774C8.9562 26.5737 9.23251 26.201 9.36779 26.4269C9.44551 26.5478 9.48868 26.8429 9.60957 27.0846C9.65994 27.1897 9.72182 27.289 9.7909 27.3811C10.5249 28.2647 11.7697 28.5454 12.8304 28.8533C16.5376 29.7902 20.4895 29.6996 24.2471 29.0376C25.2315 28.7972 26.5152 28.6475 27.2391 27.8992C27.4363 27.6963 27.5845 27.4128 27.7414 27.3149C28.0263 27.1508 28.2695 27.5207 28.5386 27.7524C28.6178 27.8301 28.6998 27.9121 28.7747 27.9899C29.1201 28.3439 29.4295 28.6792 29.8022 29.0116C30.1246 29.3167 30.5218 29.6146 30.5894 30.0536L30.5923 30.0651Z" fill="#EE9514"/>
<path d="M9.9347 26.3968C10.0023 26.7955 10.152 27.1452 10.4902 27.3711C11.145 27.8331 12.0474 28.0634 12.8288 28.2749C15.5977 29.0017 18.9135 29.0621 21.9314 28.7757C23.3878 28.6376 24.8716 28.4102 26.2345 27.9425C26.8533 27.7266 27.5153 27.0488 27.0202 26.4026C24.5435 23.6294 24.1506 19.748 24.2369 16.1645C24.234 15.6824 24.3031 15.1931 24.2758 14.7095C24.2499 14.131 23.8325 13.8791 23.3159 13.7655C21.3759 13.3064 19.459 12.7465 17.5291 12.2472C17.3031 12.1867 17.0268 12.1565 16.8412 12.286C16.6771 12.3896 16.5605 12.6084 16.4785 12.7998C15.2941 15.5083 14.5774 18.4225 13.1857 21.0274C12.3899 22.5241 11.3551 23.8711 10.2312 25.1477C9.89441 25.4916 9.81094 25.9061 9.93182 26.3839L9.9347 26.3968Z" fill="#FFFFFF"/>
<path d="M18.7236 53.4041C13.2807 53.4458 7.83212 51.5318 3.46863 48.216C3.31033 48.1052 2.95198 47.803 3.03401 48.1239C4.24577 51.0238 6.32677 53.5883 8.87694 55.4189C11.1925 57.0811 13.9917 58.0022 16.8297 58.1288C20.7801 58.3188 24.7478 57.1401 28.0564 54.9987C29.7618 53.8934 31.2959 52.5162 32.5322 50.9C33.0891 50.1718 33.5899 49.3903 34.0058 48.5743C34.1152 48.3613 34.1944 48.1815 34.1973 48.1037C34.2145 47.9613 33.9799 48.1483 33.9181 48.1944C31.247 50.3517 25.1292 53.5178 18.7394 53.4041H18.7236Z" fill="#FFFFFF"/>
<path d="M35.1142 44.5066C35.1127 44.5699 35.107 44.6433 35.0926 44.7239C35.0796 44.8045 35.058 44.8937 35.0264 44.9872C34.9947 45.0865 34.9587 45.1714 34.9256 45.2319C34.894 45.2923 34.8638 45.3283 34.8465 45.3298C34.8177 45.3326 34.8119 45.2549 34.8119 45.17C34.8105 45.0923 34.8105 44.993 34.8048 44.8894C34.799 44.7858 34.7889 44.6749 34.7774 44.5713C34.7645 44.4691 34.7501 44.3713 34.7342 44.3051C34.7213 44.259 34.7055 44.164 34.6724 44.2072C34.6709 44.2087 34.6695 44.2087 34.6695 44.2115C34.6349 44.2921 34.6162 44.4389 34.5946 44.5454C34.5774 44.639 34.5572 44.7527 34.5328 44.8735C34.5083 44.9944 34.4795 45.124 34.4493 45.252C34.4176 45.3801 34.3845 45.5068 34.3514 45.6262C34.3169 45.7442 34.2823 45.855 34.2536 45.9515C34.2233 46.0464 34.183 46.1587 34.1384 46.2594C34.0953 46.3616 34.0478 46.4523 34.0046 46.5156C33.9614 46.5804 33.9211 46.6207 33.8938 46.612C33.8679 46.6048 33.8722 46.5444 33.8895 46.4609C33.9067 46.3789 33.9384 46.2695 33.97 46.1673C33.9931 46.0882 34.019 45.9975 34.0463 45.8982C34.0722 45.7975 34.1025 45.6895 34.1284 45.573C34.1571 45.4578 34.183 45.337 34.2089 45.2117C34.2349 45.088 34.2579 44.9599 34.278 44.8347C34.2996 44.708 34.3169 44.5843 34.3313 44.4663C34.3471 44.3483 34.3586 44.236 34.3673 44.1367C34.3788 44.0057 34.3874 43.8834 34.386 43.7812C34.386 43.6791 34.3759 43.597 34.3529 43.5495C34.3313 43.5006 34.2939 43.492 34.2406 43.5222C34.1845 43.5539 34.1125 43.5913 34.0391 43.6359C33.9657 43.6805 33.888 43.7294 33.8089 43.7784C33.7297 43.8273 33.6506 43.8762 33.5728 43.9208C33.4923 43.9669 33.4131 44.0173 33.3411 44.059C33.2677 44.1007 33.2015 44.1353 33.1483 44.1482C33.0864 44.1626 33.0346 44.1381 32.9972 44.0863C32.9583 44.036 32.9339 43.9568 32.9223 43.8633C32.9123 43.7683 32.9152 43.656 32.9367 43.5423C32.9569 43.4373 32.9943 43.3567 33.0375 43.2962C33.0807 43.2358 33.1281 43.1926 33.1742 43.1638C33.2404 43.1207 33.3224 43.0732 33.4088 43.0228C33.4937 42.971 33.5844 42.9192 33.6721 42.8659C33.7599 42.8141 33.8448 42.7638 33.9226 42.7163C33.9988 42.6688 34.0679 42.6256 34.124 42.5896C34.1802 42.5536 34.2392 42.5162 34.2795 42.4356C34.3198 42.355 34.3413 42.227 34.3169 42.0269C34.3054 41.9319 34.2924 41.8326 34.2766 41.7333C34.2608 41.6355 34.242 41.5362 34.2205 41.4383C34.2003 41.3404 34.1787 41.2426 34.1543 41.1462C34.1312 41.0512 34.1053 40.9562 34.0794 40.8655C34.0535 40.7734 34.0262 40.6842 34.0017 40.5993C33.97 40.4928 33.9298 40.369 33.8837 40.2496C33.8376 40.1301 33.7887 40.0121 33.747 39.9042C33.7067 39.7977 33.6707 39.6998 33.6549 39.6149C33.6376 39.5314 33.6362 39.4595 33.6621 39.4091C33.7081 39.3184 33.7887 39.3285 33.865 39.3947C33.9413 39.4624 34.0175 39.5919 34.0679 39.7157C34.0996 39.7905 34.1356 39.8754 34.1701 39.9661C34.2046 40.0567 34.2392 40.1517 34.2723 40.251C34.3054 40.3503 34.337 40.4511 34.3673 40.5518C34.3975 40.654 34.4263 40.7533 34.4522 40.8483C34.4781 40.9432 34.5025 41.0339 34.5227 41.1131C34.5601 41.2498 34.5846 41.2627 34.6047 41.2196C34.6234 41.1764 34.6364 41.0785 34.6464 41.0037C34.6594 40.8958 34.6724 40.7677 34.681 40.6367C34.6882 40.5057 34.6939 40.3719 34.6983 40.2438C34.704 40.1172 34.7069 39.9963 34.7141 39.8898C34.7198 39.7833 34.7242 39.6869 34.7414 39.6221C34.7616 39.543 34.8076 39.5214 34.8508 39.5473C34.894 39.5746 34.9415 39.6466 34.9789 39.7473C35.0163 39.8481 35.0451 39.9761 35.0523 40.1085C35.0552 40.205 35.0566 40.3086 35.0566 40.418C35.0552 40.5259 35.0508 40.641 35.0451 40.7605C35.0393 40.8785 35.0293 41.0022 35.0192 41.1289C35.0077 41.2555 34.9947 41.3851 34.9789 41.5146C34.9645 41.6455 34.9472 41.7765 34.9285 41.906C34.9112 42.0356 34.8925 42.1651 34.8724 42.2888C34.8508 42.4184 34.8422 42.5321 34.845 42.6328C34.8465 42.7321 34.8594 42.8213 34.8753 42.9048C34.8911 42.9868 34.9127 43.0631 34.9314 43.1379C34.9587 43.2344 34.9861 43.3495 35.0106 43.4704C35.0365 43.5913 35.058 43.7179 35.0739 43.8446C35.0911 43.9698 35.1027 44.0921 35.1084 44.2058C35.1156 44.318 35.1156 44.4217 35.1142 44.5066ZM33.5901 46.0335C33.5441 46.1213 33.4923 46.2206 33.4419 46.3055C33.3901 46.389 33.3397 46.4624 33.2936 46.494C33.2303 46.5372 33.1872 46.4782 33.1814 46.3659C33.1771 46.2537 33.2044 46.0839 33.2778 45.9184C33.3167 45.8306 33.3656 45.7154 33.4189 45.5888C33.4735 45.4607 33.5325 45.3211 33.5901 45.1858C33.6491 45.0506 33.7081 44.921 33.7628 44.8145C33.8175 44.708 33.8693 44.626 33.9139 44.5886C33.96 44.5497 34.0003 44.5555 34.0276 44.6217C34.0291 44.626 34.0305 44.6275 34.0319 44.6318C34.0463 44.7397 34.0377 44.8563 34.0161 44.9757C33.9931 45.0952 33.9557 45.2189 33.9096 45.3427C33.865 45.465 33.8103 45.5874 33.7542 45.7039C33.6995 45.8205 33.6434 45.9342 33.5901 46.0335ZM32.9195 40.6856C32.9339 40.6036 32.967 40.5345 33.013 40.5101C33.0619 40.4842 33.1224 40.5014 33.1814 40.5331C33.2404 40.5647 33.3023 40.6137 33.3541 40.6554C33.4145 40.7029 33.4822 40.759 33.5484 40.8209C33.6131 40.8814 33.6765 40.9504 33.7326 41.0296C33.7873 41.1087 33.8348 41.1994 33.8664 41.303C33.8981 41.4081 33.9139 41.5261 33.9082 41.6614C33.9067 41.6686 33.9067 41.67 33.9053 41.6772C33.8765 41.8125 33.8233 41.8672 33.7585 41.8672C33.6923 41.8672 33.6131 41.8125 33.5282 41.7348C33.4433 41.6585 33.3527 41.5592 33.2677 41.4642C33.1843 41.3692 33.1051 41.2814 33.0476 41.2196C32.9886 41.1562 32.9497 41.0627 32.9281 40.9663C32.908 40.8684 32.9051 40.7691 32.9195 40.6856ZM32.328 44.4677C32.328 44.4749 32.3265 44.4778 32.3251 44.4835C32.305 44.5598 32.2719 44.6131 32.2258 44.6562C32.1798 44.6994 32.1179 44.7383 32.0488 44.7714C31.9811 44.8045 31.8991 44.8476 31.82 44.8923C31.7394 44.9369 31.6588 44.9815 31.5782 45.0103C31.499 45.039 31.4213 45.0506 31.3522 45.0362C31.2961 45.0232 31.2544 44.9671 31.2314 44.8851C31.2098 44.8016 31.2055 44.6937 31.2155 44.58C31.2285 44.4634 31.2673 44.3569 31.3249 44.2662C31.3825 44.1756 31.4631 44.0921 31.5436 44.0489C31.6041 44.0158 31.6976 43.9654 31.7883 43.9136C31.879 43.8618 31.9725 43.8086 32.0545 43.7784C32.1366 43.7481 32.2157 43.7381 32.256 43.7755C32.3064 43.8215 32.3366 43.9467 32.3481 44.0763C32.3611 44.2072 32.3539 44.354 32.328 44.4677ZM31.6415 47.1172C31.6214 47.2136 31.5796 47.3057 31.5307 47.3762C31.4818 47.4453 31.4228 47.4942 31.3724 47.5072C31.2846 47.5316 31.2112 47.4755 31.1536 47.4064C31.1004 47.3446 31.0385 47.2611 30.9737 47.1733C30.9075 47.0855 30.837 46.9891 30.7694 46.8999C30.7032 46.8106 30.6384 46.72 30.5852 46.6667C30.5449 46.625 30.4888 46.5415 30.4269 46.5904C30.4269 46.5919 30.4254 46.5933 30.424 46.5948C30.3707 46.6811 30.3679 46.8265 30.3564 46.933C30.3477 47.0251 30.3391 47.1388 30.329 47.2596C30.3189 47.3791 30.3074 47.5072 30.293 47.6353C30.2801 47.7619 30.2657 47.8886 30.2499 48.0066C30.2355 48.1246 30.2168 48.2354 30.2038 48.3289C30.1909 48.4225 30.1649 48.5376 30.1247 48.6427C30.0844 48.7463 30.0311 48.8427 29.9678 48.9147C29.9045 48.9866 29.8311 49.0356 29.7505 49.037C29.6814 49.037 29.6469 48.9823 29.6353 48.9017C29.6238 48.8211 29.6353 48.7132 29.6483 48.611C29.6584 48.5319 29.6699 48.4412 29.6814 48.3419C29.6929 48.2426 29.7059 48.1332 29.7174 48.0181C29.7289 47.9029 29.7404 47.7821 29.7505 47.6583C29.7605 47.5331 29.7692 47.4064 29.7764 47.2798C29.7836 47.1546 29.7893 47.0308 29.7936 46.9128C29.7965 46.7948 29.7994 46.6854 29.7994 46.5847C29.8008 46.4552 29.7994 46.3328 29.7865 46.2307C29.7735 46.1285 29.7476 46.0479 29.703 46.0033C29.6569 45.9601 29.5893 45.9543 29.4957 45.9903C29.4195 46.0191 29.3288 46.0508 29.2367 46.0867C29.1446 46.1213 29.0482 46.1601 28.9489 46.2004C28.851 46.2393 28.7503 46.2782 28.651 46.317C28.5502 46.3559 28.4509 46.3933 28.3559 46.4278C28.2667 46.4595 28.1789 46.4911 28.0955 46.5228C28.012 46.553 27.9328 46.5818 27.8609 46.6034C27.7875 46.6264 27.7213 46.6437 27.6637 46.6509C27.563 46.6638 27.4795 46.6365 27.4176 46.5833C27.3572 46.53 27.3154 46.4494 27.2996 46.353C27.2838 46.2566 27.291 46.1414 27.3284 46.0263C27.3629 45.9198 27.4248 45.8392 27.4939 45.7788C27.5644 45.7198 27.6421 45.678 27.7155 45.6507C27.8004 45.6176 27.9026 45.5816 28.0105 45.5413C28.117 45.5025 28.2336 45.4607 28.3487 45.4175C28.4653 45.3758 28.5833 45.3312 28.697 45.288C28.8122 45.2463 28.9201 45.2031 29.0223 45.1628C29.123 45.1225 29.2137 45.0851 29.2914 45.052C29.3561 45.0247 29.4238 44.9973 29.4842 44.9556C29.5447 44.9138 29.5965 44.8592 29.6296 44.7771C29.6641 44.6965 29.6771 44.5886 29.6612 44.4504C29.6512 44.3526 29.6411 44.249 29.6267 44.1468C29.6123 44.0446 29.5965 43.941 29.5778 43.8388C29.5605 43.7352 29.5404 43.6344 29.5202 43.5337C29.5001 43.433 29.4785 43.3337 29.4569 43.2372C29.4353 43.1394 29.4108 43.0444 29.3921 42.9552C29.3691 42.8415 29.336 42.7091 29.2986 42.581C29.2597 42.4529 29.2194 42.3263 29.1878 42.2083C29.1575 42.0917 29.1374 41.9837 29.1403 41.8916C29.1432 41.7981 29.1676 41.7175 29.2252 41.6599C29.2971 41.5894 29.3763 41.5721 29.4468 41.588C29.5173 41.6038 29.5835 41.6556 29.6368 41.7261C29.6915 41.7981 29.7318 41.8931 29.7591 41.9809C29.7836 42.0629 29.8152 42.155 29.8426 42.2514C29.8699 42.3478 29.8987 42.45 29.9246 42.5551C29.952 42.6601 29.9779 42.7681 30.0038 42.8746C30.0297 42.9811 30.0541 43.0861 30.0772 43.1854C30.1016 43.2847 30.1247 43.3797 30.1462 43.4617C30.1851 43.6028 30.2283 43.6129 30.27 43.5639C30.3103 43.515 30.3492 43.4085 30.3808 43.3279C30.4182 43.2315 30.4571 43.1221 30.4945 43.0099C30.5305 42.8962 30.5665 42.7796 30.6024 42.663C30.6384 42.5464 30.6744 42.4313 30.7089 42.3234C30.7449 42.214 30.7809 42.1118 30.8183 42.0212C30.8557 41.9291 30.8917 41.8427 30.9335 41.7808C31.0011 41.6815 31.0903 41.6513 31.1608 41.6714C31.2299 41.6916 31.2904 41.7621 31.3249 41.8672C31.3609 41.9708 31.3724 42.1089 31.3407 42.2572C31.322 42.3493 31.3004 42.4471 31.2745 42.5493C31.2486 42.6515 31.2213 42.7594 31.1896 42.8688C31.1594 42.9796 31.1263 43.0933 31.0918 43.2113C31.0572 43.3279 31.0198 43.4474 30.9824 43.5668C30.945 43.6877 30.9061 43.81 30.8673 43.9309C30.8284 44.0518 30.7895 44.1741 30.7521 44.2936C30.7147 44.413 30.6787 44.5325 30.6427 44.6447C30.5996 44.7814 30.5809 44.8995 30.5852 45.0002C30.5909 45.1024 30.6168 45.1873 30.6528 45.2664C30.6902 45.3441 30.7377 45.4147 30.7852 45.4823C30.8342 45.5528 30.8903 45.6334 30.9493 45.7183C31.0068 45.8018 31.0687 45.891 31.1292 45.9802C31.1896 46.068 31.2486 46.1573 31.3048 46.2407C31.3609 46.3256 31.4127 46.4062 31.4587 46.4796C31.5048 46.553 31.548 46.6207 31.5796 46.6782C31.6098 46.73 31.6358 46.7934 31.6487 46.8668C31.6631 46.9402 31.6631 47.0236 31.6415 47.1172ZM29.2396 47.6799C29.2065 47.7792 29.1619 47.8799 29.1101 47.9807C29.0597 48.08 29.0007 48.1778 28.9431 48.2728C28.8855 48.3678 28.8265 48.4599 28.7719 48.5419C28.7129 48.6312 28.6452 48.7333 28.5761 48.8211C28.5056 48.9075 28.4308 48.9837 28.3516 49.0168C28.2782 49.0485 28.2048 49.0312 28.1516 48.9837C28.0998 48.9377 28.0652 48.8585 28.058 48.7621C28.0508 48.6643 28.0724 48.5506 28.1329 48.4397C28.1732 48.3664 28.2221 48.2728 28.2782 48.1692C28.3329 48.0656 28.3934 47.9519 28.4581 47.8367C28.5214 47.7216 28.5891 47.605 28.6567 47.4985C28.7244 47.392 28.7934 47.2956 28.8611 47.2194C28.9287 47.1431 28.9949 47.0884 29.0597 47.0668C29.123 47.0452 29.1835 47.0553 29.2381 47.1071C29.241 47.1114 29.2425 47.1129 29.2453 47.1172C29.2842 47.2006 29.3 47.2913 29.2971 47.3863C29.2928 47.4813 29.2727 47.5791 29.2396 47.6799ZM27.7184 43.0415C27.7601 42.9552 27.8263 42.8818 27.9026 42.8587C27.9818 42.8328 28.0667 42.853 28.1444 42.889C28.2235 42.9249 28.3041 42.9782 28.3732 43.0242C28.4524 43.0761 28.5416 43.1379 28.6279 43.2027C28.7129 43.2689 28.7978 43.3423 28.8668 43.4258C28.9359 43.5092 28.9935 43.6042 29.0237 43.7136C29.0554 43.823 29.0611 43.9482 29.0295 44.0921C29.0266 44.0978 29.0266 44.1007 29.0237 44.1065C28.9705 44.2216 28.8999 44.2835 28.8208 44.3036C28.7416 44.3238 28.6524 44.3022 28.5589 44.2576C28.4653 44.2115 28.3675 44.1425 28.2725 44.0633C28.1775 43.987 28.0839 43.9007 28.0005 43.8215C27.9156 43.7424 27.8407 43.669 27.7817 43.6143C27.7069 43.5438 27.6695 43.443 27.6623 43.3394C27.6536 43.2358 27.6752 43.1293 27.7184 43.0415ZM26.38 46.9186C26.3786 46.9243 26.3771 46.9272 26.3742 46.9344C26.3455 47.0078 26.2951 47.0582 26.226 47.097C26.1555 47.1359 26.0648 47.1675 25.9598 47.1934C25.8821 47.2122 25.7928 47.2352 25.705 47.2611C25.6173 47.287 25.5266 47.3143 25.4359 47.3359C25.3467 47.3589 25.2575 47.3762 25.1711 47.3834C25.0848 47.3892 25.0013 47.3849 24.925 47.3647C24.8416 47.3431 24.7811 47.2812 24.748 47.1949C24.7163 47.1071 24.712 46.9963 24.7322 46.884C24.7466 46.8049 24.7768 46.7329 24.8214 46.6696C24.8675 46.6063 24.9265 46.5516 24.9941 46.5041C25.0632 46.458 25.1452 46.4134 25.2258 46.3918C25.2949 46.3731 25.3913 46.3501 25.4877 46.3199C25.5856 46.2897 25.6906 46.2566 25.7899 46.2292C25.8907 46.2019 25.9886 46.1803 26.0735 46.1731C26.1598 46.1659 26.239 46.1717 26.2836 46.2048C26.3296 46.2407 26.3656 46.3156 26.3886 46.3962C26.4102 46.4753 26.4203 46.5689 26.4189 46.6595C26.4174 46.7516 26.4045 46.8423 26.38 46.9186ZM25.5813 49.5421C25.5669 49.64 25.5194 49.7292 25.4546 49.794C25.3899 49.8587 25.3064 49.9005 25.2244 49.9062C25.1553 49.912 25.0876 49.8976 25.0258 49.8717C24.9624 49.8429 24.9034 49.8041 24.8488 49.7623C24.7768 49.7062 24.6962 49.6371 24.6127 49.5637C24.5278 49.4889 24.4386 49.4083 24.3508 49.3263C24.263 49.2457 24.1752 49.1636 24.0946 49.0874C24.014 49.0125 23.9392 48.9377 23.8788 48.8888C23.8126 48.837 23.7248 48.7405 23.6384 48.7779C23.6356 48.7794 23.6356 48.7808 23.6327 48.7823C23.5622 48.86 23.5708 49.0096 23.5636 49.1161C23.5593 49.2083 23.5607 49.3234 23.5593 49.4457C23.5593 49.568 23.5593 49.699 23.5578 49.8285C23.5564 49.958 23.555 50.0876 23.5521 50.207C23.5506 50.3279 23.542 50.443 23.542 50.538C23.5406 50.633 23.5262 50.7496 23.4859 50.8503C23.447 50.9539 23.3851 51.0432 23.3031 51.105C23.2211 51.1669 23.116 51.2 22.9923 51.1813C22.8829 51.164 22.8196 51.095 22.7865 51.0072C22.7519 50.918 22.7476 50.8057 22.749 50.7006C22.749 50.6186 22.7505 50.5265 22.7505 50.4243C22.7519 50.3221 22.7519 50.2113 22.7534 50.0948C22.7534 49.9768 22.7548 49.8544 22.7534 49.7278C22.7534 49.6011 22.7534 49.4716 22.7519 49.3435C22.749 49.2169 22.7476 49.0902 22.7447 48.9708C22.7418 48.8513 22.7375 48.7391 22.7346 48.6369C22.7289 48.5059 22.7231 48.3807 22.7015 48.2742C22.68 48.1677 22.644 48.0814 22.5792 48.0267C22.5159 47.972 22.4224 47.9519 22.2928 47.9663C22.2065 47.9763 22.1086 47.9835 22.0108 47.9936C21.9115 48.0051 21.8078 48.0166 21.7028 48.0282C21.5977 48.0411 21.4898 48.0526 21.3804 48.0656C21.2725 48.0771 21.1631 48.0886 21.0566 48.0987C20.9487 48.1087 20.8422 48.1174 20.74 48.126C20.6191 48.1332 20.5025 48.1433 20.3903 48.1519C20.2795 48.1591 20.1744 48.1663 20.0765 48.1692C19.9801 48.1721 19.8909 48.1706 19.8146 48.162C19.6808 48.1462 19.5714 48.0972 19.4908 48.0267C19.4117 47.9562 19.3599 47.8641 19.3426 47.7648C19.3239 47.664 19.3383 47.5504 19.3915 47.4482C19.4404 47.3503 19.5282 47.287 19.6203 47.2467C19.7139 47.205 19.8189 47.1863 19.9154 47.1776C19.9974 47.1704 20.0895 47.1647 20.1874 47.1575C20.2852 47.1488 20.3903 47.1416 20.4982 47.133C20.6062 47.1258 20.717 47.1157 20.8292 47.1071C20.9415 47.097 21.0537 47.087 21.1645 47.0769C21.2754 47.0654 21.3833 47.0553 21.4883 47.0438C21.592 47.0323 21.6927 47.0208 21.7848 47.0092C21.8784 46.9977 21.9633 46.9862 22.0395 46.9747C22.1273 46.9617 22.2209 46.9488 22.3043 46.92C22.3893 46.8927 22.4626 46.8481 22.513 46.7732C22.5648 46.6984 22.5893 46.5904 22.5807 46.448C22.5749 46.3472 22.5706 46.2379 22.5605 46.1314C22.5533 46.0249 22.5418 45.9169 22.5303 45.8076C22.5188 45.6996 22.5058 45.5917 22.4914 45.4852C22.4785 45.3787 22.4655 45.2736 22.4511 45.17C22.4382 45.0678 22.4224 44.9642 22.4137 44.8692C22.4036 44.7512 22.3835 44.6073 22.3605 44.4677C22.3346 44.3296 22.3087 44.19 22.2957 44.0619C22.2813 43.9352 22.2799 43.8201 22.3058 43.7251C22.3302 43.6301 22.3835 43.5524 22.4727 43.5049C22.5821 43.4474 22.6886 43.4459 22.7749 43.4776C22.8613 43.5092 22.9318 43.5769 22.9851 43.6618C23.0383 43.7467 23.07 43.8561 23.0844 43.9511C23.0988 44.0388 23.1203 44.141 23.1362 44.2461C23.1534 44.3511 23.1693 44.462 23.1851 44.5742C23.2009 44.6879 23.2168 44.803 23.234 44.9167C23.2499 45.0304 23.2671 45.1427 23.283 45.2492C23.3002 45.3542 23.3189 45.455 23.3376 45.5442C23.3707 45.6953 23.4283 45.714 23.4902 45.6723C23.5535 45.6305 23.6197 45.5298 23.673 45.4521C23.7349 45.3614 23.8025 45.2578 23.8687 45.1499C23.9363 45.0405 24.0025 44.9268 24.0702 44.8131C24.1378 44.7008 24.2069 44.5886 24.2745 44.4835C24.3422 44.3785 24.4113 44.2792 24.4789 44.19C24.548 44.1022 24.617 44.0187 24.6847 43.9626C24.771 43.8921 24.8675 43.8661 24.9437 43.8705C25.02 43.8748 25.0848 43.9093 25.1323 43.9683C25.1783 44.0259 25.2085 44.1079 25.2129 44.2029C25.2186 44.2979 25.1985 44.4073 25.1481 44.5195C25.1107 44.6001 25.0704 44.685 25.0258 44.7728C24.9812 44.8606 24.9351 44.9513 24.8847 45.0448C24.8358 45.1383 24.784 45.2348 24.7293 45.3326C24.6761 45.4319 24.6214 45.5312 24.5652 45.632C24.5091 45.7342 24.4515 45.8363 24.3954 45.9385C24.3379 46.0407 24.2817 46.1443 24.227 46.2465C24.1709 46.3487 24.1177 46.4523 24.0644 46.553C24.0126 46.6538 23.9637 46.7545 23.9162 46.8481C23.8485 46.979 23.8183 47.0956 23.8226 47.1978C23.8284 47.3014 23.8644 47.392 23.9162 47.4784C23.968 47.5647 24.0356 47.6439 24.1062 47.7202C24.1652 47.7878 24.2328 47.8612 24.3062 47.9404C24.3781 48.0195 24.4559 48.103 24.535 48.1865C24.6142 48.2699 24.6948 48.3548 24.7754 48.4369C24.8545 48.5203 24.9337 48.6009 25.0099 48.6786C25.0848 48.7549 25.1567 48.8283 25.2215 48.8945C25.2877 48.9622 25.3496 49.0226 25.3999 49.0773C25.4546 49.1349 25.5079 49.2054 25.5439 49.2831C25.5784 49.3608 25.5942 49.4486 25.5813 49.5421ZM22.018 49.6242C21.9805 49.7177 21.9273 49.8113 21.8654 49.9019C21.8021 49.9911 21.7316 50.0789 21.6596 50.161C21.5876 50.243 21.5143 50.325 21.4481 50.3941C21.3747 50.4718 21.2926 50.5596 21.2048 50.6316C21.1185 50.7021 21.0206 50.7611 20.9127 50.7726C20.8105 50.7841 20.7055 50.7453 20.6249 50.6805C20.5443 50.6143 20.4853 50.5222 20.4637 50.42C20.4421 50.3178 20.4594 50.2056 20.5328 50.1077C20.5817 50.0444 20.6407 49.9624 20.7083 49.8717C20.776 49.7796 20.8508 49.6803 20.93 49.5796C21.0106 49.4788 21.0955 49.3781 21.1832 49.2874C21.2696 49.1967 21.3603 49.1161 21.4495 49.0557C21.5402 48.9953 21.6294 48.9578 21.7172 48.9506C21.8035 48.9449 21.8899 48.9708 21.9705 49.037C21.9748 49.0413 21.9762 49.0442 21.9805 49.0485C22.041 49.1435 22.0683 49.2399 22.0726 49.3363C22.0755 49.4328 22.0554 49.5292 22.018 49.6242ZM20.1212 44.8433C20.1284 44.7368 20.1758 44.6346 20.2464 44.5569C20.3183 44.4792 20.4147 44.4245 20.5169 44.4188C20.622 44.413 20.7242 44.4548 20.8177 44.5109C20.9113 44.5684 21.0019 44.6404 21.0825 44.7037C21.1559 44.7613 21.2365 44.8275 21.3171 44.8951C21.3977 44.9628 21.4783 45.0347 21.5502 45.1096C21.6222 45.1858 21.6869 45.2679 21.7344 45.3528C21.7834 45.4391 21.815 45.5312 21.8251 45.6277C21.8337 45.7255 21.8194 45.8291 21.7733 45.94C21.769 45.9457 21.7675 45.9486 21.7647 45.9543C21.6941 46.0407 21.615 46.0867 21.5286 46.0997C21.4409 46.1141 21.3488 46.0939 21.2523 46.0536C21.1573 46.0119 21.0595 45.9486 20.9616 45.8738C20.8652 45.7989 20.7688 45.7111 20.6781 45.6233C20.5874 45.537 20.5025 45.4463 20.4248 45.3643C20.3485 45.2837 20.2809 45.2089 20.2248 45.1499C20.1427 45.0606 20.1125 44.9498 20.1212 44.8433ZM18.197 47.8123C18.1913 47.9015 18.1726 47.9879 18.1409 48.0555C18.138 48.0613 18.1366 48.0627 18.1323 48.0684C18.0948 48.1332 18.0301 48.1677 17.9423 48.185C17.8531 48.2008 17.7394 48.2052 17.6099 48.198C17.512 48.1922 17.4041 48.1865 17.2976 48.185C17.1911 48.1836 17.0817 48.1821 16.9752 48.1749C16.8687 48.1692 16.7636 48.1577 16.6629 48.1361C16.5622 48.1159 16.4672 48.0857 16.3808 48.0411C16.2858 47.9951 16.2182 47.9145 16.1851 47.8195C16.1506 47.7245 16.1491 47.6137 16.1765 47.5101C16.1966 47.4367 16.234 47.3762 16.2873 47.3273C16.342 47.2784 16.411 47.2424 16.4916 47.2179C16.5722 47.1934 16.6687 47.1762 16.7622 47.1791C16.8442 47.1819 16.9579 47.1891 17.0731 47.1891C17.1896 47.1906 17.3163 47.1891 17.4386 47.1934C17.5624 47.1963 17.6818 47.205 17.7869 47.2237C17.8919 47.2438 17.9883 47.2726 18.0445 47.3201C18.1006 47.369 18.1423 47.4539 18.1668 47.5403C18.1913 47.6266 18.2013 47.7216 18.197 47.8123ZM17.217 50.4301C17.2069 50.5236 17.1565 50.5999 17.0817 50.6431C17.0069 50.6877 16.9075 50.7006 16.8082 50.6791C16.7248 50.6618 16.6427 50.6229 16.5665 50.574C16.4888 50.5251 16.4154 50.4646 16.3506 50.4042C16.2801 50.3394 16.2024 50.2631 16.1232 50.1826C16.0441 50.1034 15.9606 50.0171 15.8786 49.9293C15.7965 49.8415 15.7145 49.7522 15.6353 49.6645C15.5562 49.5767 15.4799 49.4918 15.4108 49.4126C15.3403 49.3349 15.277 49.2601 15.2223 49.2054C15.1504 49.1305 15.0554 49.0082 14.9647 49.0168C14.9633 49.0183 14.9618 49.0183 14.9604 49.0197C14.887 49.073 14.8985 49.2255 14.8942 49.3263C14.8913 49.4155 14.8971 49.5321 14.8999 49.6515C14.9043 49.7724 14.9086 49.9019 14.9143 50.0314C14.9187 50.1595 14.9244 50.2876 14.9287 50.4085C14.933 50.5279 14.933 50.6431 14.9374 50.7352C14.9431 50.8316 14.9359 50.9439 14.8999 51.0316C14.8654 51.1209 14.8064 51.1914 14.7244 51.2245C14.6423 51.2576 14.5344 51.2547 14.4063 51.1928C14.2912 51.1381 14.2235 51.0475 14.1832 50.9482C14.143 50.8474 14.13 50.7337 14.1242 50.6301C14.1199 50.5495 14.1156 50.456 14.1113 50.3552C14.1055 50.2545 14.1012 50.1451 14.0969 50.0286C14.0911 49.9134 14.0868 49.7911 14.0825 49.6659C14.0782 49.5421 14.0724 49.414 14.0681 49.2888C14.0624 49.1622 14.058 49.0384 14.0537 48.9204C14.0494 48.8024 14.0437 48.6902 14.0393 48.5909C14.035 48.4613 14.0293 48.3376 14.0077 48.2268C13.9875 48.1174 13.953 48.0224 13.8911 47.9504C13.8307 47.877 13.7386 47.8281 13.6148 47.8036C13.5313 47.7878 13.4392 47.7648 13.3457 47.7461C13.2521 47.7259 13.1557 47.7072 13.0578 47.6885C12.96 47.6684 12.8607 47.6497 12.7628 47.6295C12.665 47.6094 12.5671 47.5892 12.4707 47.5691C12.3757 47.5489 12.2821 47.5273 12.1929 47.5057C12.0879 47.4798 11.9871 47.4568 11.8921 47.4352C11.7957 47.4136 11.7079 47.3906 11.6259 47.369C11.5453 47.346 11.4705 47.3215 11.4071 47.2927C11.2992 47.2438 11.21 47.1675 11.1467 47.0812C11.0833 46.9948 11.0445 46.8955 11.033 46.7948C11.0214 46.6941 11.0358 46.5904 11.0833 46.5027C11.1265 46.4235 11.1999 46.3818 11.2762 46.3659C11.3539 46.3501 11.4417 46.3587 11.5223 46.3746C11.6014 46.3918 11.6935 46.4134 11.7928 46.4365C11.8921 46.458 11.9986 46.4825 12.1094 46.5084C12.2217 46.5329 12.3368 46.5588 12.452 46.5833C12.5685 46.6092 12.6851 46.6322 12.7988 46.6552C12.9125 46.6782 13.0219 46.6998 13.1255 46.72C13.2291 46.7387 13.3241 46.7545 13.409 46.7689C13.4925 46.7833 13.5817 46.7977 13.6637 46.7948C13.7443 46.7919 13.8191 46.7703 13.8724 46.7128C13.9256 46.6552 13.9559 46.5559 13.9573 46.4134C13.9587 46.3141 13.9631 46.2062 13.9631 46.0997C13.9645 45.9932 13.9631 45.8838 13.9616 45.7745C13.9616 45.6651 13.9587 45.5571 13.9587 45.4492C13.9573 45.3413 13.9559 45.2348 13.9559 45.1297C13.9544 45.0261 13.953 44.9196 13.9573 44.8261C13.9645 44.7066 13.9659 44.5613 13.9631 44.4188C13.9602 44.2763 13.9573 44.1324 13.9674 44.0029C13.976 43.8748 13.9947 43.7611 14.0365 43.6747C14.0782 43.5884 14.143 43.5265 14.2365 43.5064C14.3545 43.4805 14.4567 43.5107 14.5344 43.5668C14.6121 43.6229 14.6697 43.7107 14.7057 43.81C14.7431 43.9093 14.7531 44.0259 14.7517 44.1238C14.7503 44.2144 14.7546 44.3209 14.7546 44.4289C14.7546 44.5368 14.7546 44.649 14.7546 44.7656C14.7531 44.8807 14.7546 44.9973 14.756 45.1139C14.7575 45.2305 14.7603 45.3456 14.7647 45.4535C14.7704 45.5629 14.7776 45.6665 14.7891 45.7601C14.8064 45.9169 14.864 45.9529 14.9316 45.9313C14.9992 45.9097 15.0784 45.8306 15.1403 45.7716C15.2151 45.7011 15.2971 45.6205 15.3792 45.5341C15.4626 45.4478 15.5476 45.3571 15.6339 45.2664C15.7203 45.1758 15.8095 45.0865 15.8973 45.0045C15.9851 44.921 16.0743 44.8433 16.1621 44.7771C16.2513 44.7109 16.342 44.649 16.4254 44.6145C16.5319 44.5699 16.6427 44.5742 16.7277 44.6001C16.8126 44.6275 16.8788 44.6821 16.9234 44.7541C16.9666 44.8261 16.9867 44.9153 16.9781 45.0103C16.9694 45.1067 16.9306 45.2089 16.8572 45.3039C16.7967 45.3816 16.7305 45.4636 16.6586 45.5471C16.5881 45.632 16.5118 45.7198 16.4355 45.809C16.3578 45.8982 16.2772 45.9903 16.1966 46.0824C16.116 46.176 16.034 46.2695 15.9534 46.3645C15.8728 46.4595 15.7922 46.5559 15.7145 46.6509C15.6368 46.7459 15.5605 46.8437 15.49 46.9387C15.418 47.0337 15.3518 47.1316 15.2885 47.2179C15.2122 47.3244 15.1748 47.4295 15.1763 47.5316C15.1777 47.6338 15.2122 47.7331 15.2655 47.8339C15.3187 47.9332 15.3907 48.0325 15.4641 48.1289C15.5188 48.2008 15.5792 48.2814 15.6454 48.3664C15.7131 48.4513 15.7836 48.5405 15.8584 48.6326C15.9318 48.7233 16.011 48.8168 16.0887 48.9103C16.1678 49.0039 16.2484 49.0989 16.3276 49.1895C16.4067 49.2802 16.4844 49.3694 16.5607 49.4529C16.637 49.5378 16.7089 49.6184 16.778 49.6932C16.8457 49.7666 16.909 49.8357 16.9651 49.8976C17.0356 49.9739 17.1047 50.0631 17.1522 50.1538C17.2011 50.2444 17.227 50.3394 17.217 50.4301ZM13.4061 49.1377C13.3989 49.2514 13.3601 49.355 13.3025 49.4486C13.2449 49.5421 13.1701 49.6256 13.0924 49.7019C13.0132 49.7767 12.9312 49.8501 12.8592 49.9091C12.7959 49.9624 12.724 50.0228 12.6491 50.066C12.5743 50.1092 12.4894 50.1365 12.3958 50.1164C12.3037 50.0948 12.2116 50.0271 12.1382 49.9408C12.0648 49.853 12.0101 49.7465 11.9871 49.6414C11.9641 49.5349 11.9756 49.4328 12.0346 49.3594C12.0807 49.3004 12.1425 49.2226 12.2116 49.1377C12.2821 49.0514 12.3627 48.9593 12.4491 48.8729C12.5354 48.788 12.629 48.7089 12.7254 48.6527C12.8218 48.5966 12.9197 48.5664 13.0175 48.575C13.1154 48.5851 13.2133 48.6369 13.3054 48.7448C13.3082 48.7506 13.3111 48.7535 13.3154 48.7592C13.3874 48.8974 13.4133 49.0226 13.4061 49.1377ZM10.1393 46.5717C10.1335 46.6566 10.1177 46.7329 10.0932 46.789C10.0903 46.7934 10.0889 46.7962 10.086 46.8006C10.0558 46.8524 10.0069 46.8711 9.94065 46.8682C9.87301 46.8653 9.78522 46.8423 9.6888 46.8078C9.59094 46.7732 9.48156 46.7387 9.37507 46.7056C9.26713 46.6725 9.15919 46.6365 9.05701 46.5904C8.95484 46.5444 8.85697 46.4839 8.77206 46.4077C8.70155 46.3444 8.65262 46.2551 8.62959 46.1601C8.60512 46.0637 8.60656 45.9587 8.62959 45.8651C8.65262 45.7673 8.70874 45.7025 8.78646 45.6694C8.86417 45.6377 8.97354 45.632 9.07572 45.6636C9.15775 45.6895 9.2772 45.7284 9.39809 45.7615C9.52042 45.796 9.64994 45.8335 9.76363 45.8809C9.87877 45.9299 9.98526 45.9903 10.0385 46.068C10.0802 46.1285 10.1076 46.2177 10.1234 46.3055C10.1407 46.3947 10.145 46.4868 10.1393 46.5717ZM9.36643 49.0154C9.31462 49.0413 9.2441 49.0327 9.17071 48.9895C9.10882 48.955 9.0455 48.9032 8.98794 48.8398C8.92893 48.7765 8.8728 48.7046 8.82099 48.634C8.76487 48.5578 8.70586 48.4714 8.64398 48.3793C8.58066 48.2886 8.51734 48.1908 8.45257 48.0929C8.38925 47.9936 8.32449 47.8929 8.26405 47.795C8.20216 47.6986 8.1446 47.6036 8.09135 47.5173C8.0381 47.4309 7.98917 47.3489 7.94887 47.287C7.89275 47.2035 7.82079 47.0711 7.75747 47.0654C7.75603 47.0654 7.75459 47.0654 7.75315 47.0654C7.70278 47.1028 7.71717 47.2481 7.72005 47.3431C7.72293 47.428 7.73156 47.536 7.74164 47.6511C7.75171 47.7648 7.76322 47.8886 7.77618 48.0109C7.78913 48.1332 7.80208 48.2541 7.81503 48.3678C7.82798 48.4815 7.83806 48.5894 7.84957 48.6772C7.86828 48.8182 7.8654 48.9694 7.81647 49.0471C7.7661 49.1233 7.674 49.1334 7.5344 49.014C7.45093 48.942 7.3948 48.847 7.35738 48.7463C7.31997 48.6455 7.29982 48.5376 7.28543 48.4397C7.27391 48.3635 7.2624 48.2757 7.24945 48.1807C7.2365 48.0843 7.22354 47.9807 7.21059 47.8713C7.19908 47.7619 7.18613 47.6468 7.17317 47.5288C7.16166 47.4108 7.15015 47.2899 7.14007 47.1704C7.13 47.051 7.11993 46.933 7.11129 46.8221C7.10266 46.7099 7.09546 46.6048 7.08826 46.5099C7.08107 46.3875 7.07387 46.2695 7.0566 46.163C7.04077 46.058 7.01487 45.963 6.97025 45.8853C6.92564 45.8061 6.85944 45.7485 6.77453 45.7068C6.67667 45.6608 6.56442 45.6032 6.45216 45.5499C6.34135 45.4981 6.22622 45.4463 6.11396 45.3945C6.00171 45.3427 5.89234 45.2909 5.79016 45.2405C5.68366 45.1873 5.58436 45.1398 5.49513 45.0952C5.4059 45.0506 5.32675 45.0059 5.26343 44.9585C5.19003 44.9009 5.13103 44.8232 5.08785 44.7368C5.04468 44.649 5.01877 44.5526 5.01014 44.4576C5.0015 44.3627 5.01158 44.2648 5.04324 44.1856C5.07346 44.1137 5.12239 44.0806 5.1742 44.0719C5.22745 44.0647 5.28646 44.0791 5.3397 44.1036C5.4203 44.1381 5.51816 44.1856 5.62609 44.236C5.73403 44.2878 5.85204 44.3439 5.97149 44.4001C6.09238 44.4562 6.21326 44.5123 6.3284 44.5641C6.44209 44.6159 6.55002 44.662 6.63925 44.6994C6.72704 44.7368 6.82346 44.7786 6.90118 44.757C6.97889 44.7354 7.03214 44.6433 7.04509 44.4389C7.05085 44.3425 7.05948 44.2403 7.06524 44.1396C7.07243 44.0374 7.07963 43.9338 7.08683 43.8287C7.09546 43.7251 7.10266 43.6215 7.11129 43.5179C7.11993 43.4143 7.13 43.3121 7.14151 43.2128C7.15159 43.1135 7.16166 43.0142 7.17605 42.9235C7.19476 42.8113 7.21491 42.6731 7.23218 42.5364C7.24945 42.3997 7.2696 42.2629 7.2955 42.1421C7.32285 42.0197 7.35595 41.9161 7.402 41.8398C7.44805 41.7621 7.5085 41.7132 7.58189 41.7074C7.674 41.7002 7.74595 41.7448 7.79488 41.811C7.84238 41.8772 7.86972 41.9694 7.87979 42.0701C7.88987 42.1708 7.87979 42.2831 7.86252 42.3766C7.84669 42.4644 7.83374 42.5652 7.81935 42.6688C7.80352 42.771 7.78769 42.8789 7.7733 42.9897C7.75891 43.0991 7.74451 43.2113 7.733 43.3236C7.72005 43.4344 7.71141 43.5438 7.70422 43.6488C7.69702 43.7539 7.69414 43.8532 7.69414 43.9439C7.69414 44.0978 7.733 44.141 7.78481 44.1324C7.83662 44.1223 7.90138 44.0604 7.95319 44.0144C8.01364 43.9611 8.08271 43.8978 8.15323 43.8287C8.22231 43.7611 8.29571 43.6891 8.37054 43.6186C8.44538 43.5467 8.52165 43.4776 8.59937 43.4143C8.67564 43.3509 8.75336 43.2934 8.82819 43.2459C8.90447 43.1998 8.98218 43.1566 9.04982 43.1394C9.16495 43.1106 9.27289 43.1595 9.33765 43.2344C9.40241 43.3092 9.43551 43.4186 9.42975 43.5366C9.424 43.6546 9.37938 43.7827 9.29016 43.8834C9.22539 43.9568 9.15488 44.0331 9.08148 44.1122C9.00664 44.1914 8.92893 44.272 8.85122 44.3569C8.7735 44.4404 8.69291 44.5253 8.61376 44.6131C8.53461 44.7008 8.45689 44.7901 8.38206 44.8793C8.30722 44.9685 8.23382 45.0606 8.16762 45.1527C8.09998 45.2463 8.0381 45.3398 7.98197 45.4247C7.92297 45.5125 7.89275 45.6061 7.89275 45.7025C7.89131 45.7989 7.91577 45.8997 7.95463 46.0033C7.99205 46.1055 8.04386 46.2105 8.09854 46.317C8.13884 46.3947 8.18345 46.4811 8.23238 46.5732C8.28132 46.6653 8.33456 46.7631 8.39069 46.8639C8.44682 46.9646 8.50438 47.0682 8.56483 47.1719C8.62383 47.2755 8.68572 47.3791 8.74616 47.4813C8.8066 47.582 8.86705 47.6813 8.92605 47.7777C8.98362 47.8727 9.03974 47.9634 9.09299 48.0483C9.14624 48.1332 9.19661 48.2124 9.23979 48.2814C9.29591 48.3707 9.3506 48.4685 9.3909 48.565C9.43119 48.6614 9.45566 48.7578 9.45278 48.8413C9.4499 48.9291 9.41824 48.9895 9.36643 49.0154ZM6.62774 47.2064C6.59608 47.2856 6.5529 47.3532 6.50829 47.4151C6.46224 47.4755 6.41618 47.5316 6.37445 47.5777C6.30393 47.6583 6.22046 47.7734 6.09957 47.713C6.03769 47.6828 5.97149 47.6079 5.9168 47.5187C5.85924 47.4295 5.81318 47.323 5.78728 47.2208C5.76137 47.1201 5.75849 47.0251 5.78872 46.9617C5.82038 46.8999 5.86211 46.8121 5.91392 46.72C5.96717 46.6264 6.03049 46.53 6.10101 46.4566C6.17297 46.3832 6.25212 46.3328 6.33415 46.3372C6.41618 46.3429 6.50109 46.4034 6.586 46.5458C6.58888 46.5516 6.59176 46.5545 6.59464 46.5602C6.65076 46.7013 6.67523 46.8221 6.67667 46.9301C6.67955 47.0351 6.6594 47.1272 6.62774 47.2064ZM4.40426 44.3857C4.40282 44.39 4.40138 44.3914 4.39994 44.3958C4.3654 44.4907 4.27186 44.4548 4.15385 44.3828C4.06174 44.3281 3.95813 44.2777 3.86026 44.2202C3.7624 44.164 3.66886 44.0921 3.5897 43.9827C3.54509 43.9223 3.51343 43.8388 3.4976 43.7481C3.48177 43.6575 3.48033 43.5582 3.49328 43.4689C3.50623 43.3754 3.53933 43.3135 3.58683 43.2833C3.63432 43.2531 3.70484 43.2502 3.76384 43.2819C3.81421 43.3078 3.88761 43.3466 3.96388 43.3826C4.04016 43.4186 4.12075 43.4589 4.19271 43.5092C4.26466 43.561 4.3323 43.6244 4.3654 43.7006C4.4057 43.7927 4.42441 43.9323 4.43016 44.059C4.43448 44.1871 4.42585 44.308 4.40426 44.3857ZM5.77289 42.0413C5.80167 41.9478 5.85204 41.8701 5.91248 41.824C5.97149 41.7779 6.04201 41.7607 6.10101 41.7909C6.16433 41.8211 6.21326 41.896 6.255 41.9794C6.2953 42.0643 6.33271 42.1636 6.36725 42.25C6.40611 42.3493 6.45072 42.463 6.4939 42.5796C6.53707 42.6961 6.57737 42.8184 6.60759 42.9408C6.63781 43.0631 6.65652 43.1854 6.65364 43.3034C6.64933 43.4215 6.62486 43.5351 6.56873 43.6373C6.56586 43.6416 6.56442 43.6431 6.56154 43.6474C6.4939 43.7093 6.42482 43.7122 6.35862 43.6719C6.29098 43.6316 6.22622 43.5481 6.16433 43.4416C6.10101 43.3365 6.04489 43.207 5.99308 43.0732C5.94127 42.9393 5.89665 42.8026 5.85924 42.6774C5.82182 42.5522 5.79016 42.44 5.76713 42.3536C5.73835 42.2442 5.7441 42.1349 5.77289 42.0413ZM11.908 44.1698C11.9295 44.0691 11.9842 43.9827 12.0562 43.9252C12.1267 43.869 12.2188 43.8402 12.3066 43.8618C12.3973 43.8834 12.4793 43.9511 12.5513 44.0302C12.6247 44.1094 12.6937 44.2058 12.7556 44.2893C12.8132 44.3641 12.8751 44.4504 12.9384 44.5397C13.0017 44.6275 13.065 44.7181 13.1212 44.8131C13.1773 44.9066 13.2262 45.0031 13.2608 45.1009C13.2953 45.1988 13.3154 45.2967 13.3126 45.3945C13.3111 45.4924 13.2881 45.5888 13.2349 45.6823C13.2305 45.6867 13.2291 45.6895 13.2248 45.6939C13.1528 45.7572 13.0765 45.7802 12.996 45.7687C12.9168 45.7572 12.8333 45.7111 12.7513 45.6449C12.6693 45.5787 12.5887 45.4895 12.5095 45.3902C12.4318 45.2909 12.357 45.1815 12.2879 45.0721C12.2188 44.9613 12.1555 44.8534 12.0994 44.7541C12.0432 44.6548 11.9943 44.5641 11.9555 44.4936C11.8964 44.3857 11.8864 44.2705 11.908 44.1698ZM2.57511 45.016C2.56935 45.111 2.56359 45.1945 2.55928 45.2693C2.55352 45.36 2.55496 45.4909 2.50747 45.4578C2.46861 45.4319 2.40241 45.3125 2.3434 45.1743C2.2844 45.0362 2.23403 44.875 2.22683 44.7699C2.22108 44.6778 2.21388 44.5353 2.22108 44.3986C2.22827 44.2633 2.24986 44.1324 2.28872 44.0806C2.32901 44.0273 2.3837 44.0547 2.45854 44.2245C2.45998 44.2302 2.46141 44.2331 2.46285 44.2374C2.52042 44.4101 2.55064 44.5584 2.56503 44.685C2.57942 44.8131 2.57942 44.921 2.57511 45.016ZM2.44127 41.1044C2.42831 41.2167 2.40529 41.3261 2.36787 41.4311C2.36499 41.434 2.36499 41.4369 2.36355 41.4397C2.31174 41.5218 2.26569 41.516 2.22683 41.4541C2.18654 41.3908 2.152 41.2728 2.12609 41.1332C2.10019 40.9936 2.08292 40.8339 2.07285 40.6871C2.06133 40.5403 2.05845 40.4036 2.05558 40.3071C2.0527 40.1603 2.09731 39.9992 2.15344 39.8855C2.20956 39.7718 2.28296 39.7041 2.32326 39.7344C2.35348 39.7545 2.36931 39.8193 2.37938 39.8941C2.38946 39.9675 2.39521 40.0582 2.40241 40.1359C2.40961 40.2265 2.41968 40.3273 2.42831 40.4338C2.43839 40.5403 2.44702 40.6511 2.45134 40.7633C2.45422 40.877 2.45278 40.9922 2.44127 41.1044ZM35.5315 42.6558C35.4912 42.6803 35.4322 42.7307 35.3761 42.7652C35.3214 42.8012 35.2667 42.8199 35.2192 42.7782C35.1948 42.7566 35.1761 42.6918 35.1674 42.6055C35.1588 42.5205 35.1573 42.4112 35.1645 42.3018C35.1703 42.1881 35.1876 42.0902 35.2135 42.0111C35.2408 41.9334 35.2782 41.8629 35.3156 41.8355C35.3545 41.8082 35.4293 41.7434 35.4898 41.7017C35.5502 41.6599 35.6092 41.6455 35.6351 41.7132C35.6524 41.7549 35.6625 41.8269 35.6682 41.9103C35.6697 41.8888 35.6711 41.8672 35.6711 41.8456C35.7229 40.3014 35.379 38.2909 35.0062 37.1986C34.9199 36.9136 34.799 36.6517 34.5284 36.8748C31.4357 39.14 27.4565 40.9087 23.5694 41.6585C16.9421 43.0055 9.79961 41.6902 4.06318 38.2391C3.42708 37.8606 2.90179 37.5123 2.49595 37.2317C2.41536 37.1784 2.3175 37.1079 2.22539 37.1655C2.10739 37.2547 2.02535 37.5411 1.99513 37.7167C1.72457 38.8306 1.54324 40.4511 1.59361 41.7664C1.59937 41.9089 1.60512 42.0485 1.61376 42.1852C1.63535 42.0456 1.69003 42.0341 1.73609 42.0557C1.78214 42.0802 1.8469 42.1205 1.91886 42.1651C1.99081 42.2111 2.07141 42.2615 2.15056 42.3119C2.22971 42.3608 2.30743 42.4083 2.36931 42.4443C2.41536 42.4716 2.46717 42.5033 2.50891 42.4759C2.55064 42.4486 2.57942 42.355 2.59238 42.1564C2.59957 42.0643 2.60821 41.9665 2.61684 41.8686C2.62548 41.7708 2.63555 41.67 2.64706 41.5707C2.65858 41.47 2.67009 41.3707 2.68448 41.2728C2.69887 41.1749 2.7147 41.0771 2.73053 40.9821C2.7478 40.8871 2.76507 40.7921 2.78522 40.7058C2.80969 40.5964 2.83991 40.4669 2.87157 40.3374C2.90179 40.2064 2.93489 40.0769 2.97231 39.9617C3.00973 39.8466 3.05002 39.7459 3.0932 39.6725C3.13637 39.5991 3.18387 39.5487 3.2328 39.5415C3.31914 39.5271 3.35944 39.6149 3.36088 39.7387C3.36376 39.861 3.32778 40.0265 3.28892 40.1603C3.26446 40.2438 3.23999 40.3402 3.21553 40.4367C3.18962 40.5345 3.16516 40.6367 3.14069 40.7418C3.11766 40.8454 3.09608 40.9519 3.07593 41.0584C3.05722 41.1634 3.03995 41.2685 3.02556 41.3678C3.01261 41.4685 3.00109 41.5635 2.99534 41.6484C2.98382 41.7952 3.00541 41.8355 3.03707 41.8254C3.06873 41.8139 3.11047 41.7535 3.14645 41.7089C3.19826 41.6427 3.2587 41.5621 3.32202 41.4786C3.38678 41.3937 3.45586 41.3073 3.52638 41.2268C3.5969 41.1462 3.66886 41.0699 3.73938 41.0109C3.81133 40.9504 3.88185 40.8972 3.94229 40.8785C4.02001 40.8555 4.08765 40.9015 4.12075 40.9749C4.15385 41.0483 4.15961 41.1534 4.1409 41.2656C4.12219 41.3764 4.07757 41.4959 4.00706 41.5894C3.95669 41.6571 3.90344 41.7276 3.84875 41.801C3.79262 41.8744 3.7365 41.9492 3.68037 42.0284C3.6228 42.1075 3.56812 42.1881 3.51343 42.2716C3.45874 42.355 3.40693 42.44 3.358 42.5263C3.30907 42.6126 3.26302 42.7004 3.22128 42.7925C3.17955 42.8832 3.14357 42.9739 3.11047 43.0573C3.07737 43.1437 3.06154 43.2329 3.06298 43.325C3.06442 43.4171 3.08169 43.5121 3.10615 43.6085C3.13062 43.705 3.16516 43.8028 3.1997 43.9007C3.22992 43.987 3.2659 44.082 3.30475 44.1856C3.34505 44.2878 3.38822 44.3972 3.43428 44.5094C3.48033 44.6217 3.52926 44.7368 3.57819 44.8505C3.62856 44.9657 3.67893 45.0779 3.7293 45.1873C3.77967 45.2952 3.8286 45.4003 3.87465 45.4967C3.92071 45.5931 3.96388 45.6823 4.00274 45.7601C4.04447 45.8464 4.08621 45.9385 4.12075 46.0321C4.15529 46.1242 4.18263 46.2148 4.19271 46.294C4.21717 46.4624 4.15817 46.5127 4.06606 46.4307C4.03008 46.3976 3.98835 46.3472 3.94661 46.2882C3.90775 46.2278 3.86602 46.1601 3.8286 46.0925C3.77823 46.0018 3.72211 45.8982 3.66454 45.7874C3.60553 45.6766 3.54653 45.5586 3.48896 45.442C3.4314 45.3254 3.37671 45.2103 3.32634 45.1052C3.27741 45.0002 3.23424 44.9023 3.19826 44.8289C3.1594 44.7512 3.10903 44.6275 3.07593 44.6246C3.07449 44.626 3.07449 44.626 3.07449 44.626C3.0529 44.6649 3.07593 44.8016 3.09032 44.8937C3.10183 44.9757 3.12054 45.0779 3.14213 45.1873C3.16372 45.2967 3.18818 45.4147 3.21553 45.5312C3.24143 45.6478 3.27021 45.7644 3.29756 45.8723C3.32634 45.9802 3.35225 46.0824 3.37671 46.1688C3.41557 46.3055 3.44867 46.4494 3.44867 46.5286C3.44723 46.6063 3.41413 46.6235 3.3321 46.5214C3.28173 46.4609 3.23567 46.3746 3.19682 46.281C3.15652 46.186 3.12198 46.0824 3.0932 45.9874C3.07017 45.914 3.04571 45.8306 3.0198 45.7385C2.9939 45.6464 2.96655 45.5471 2.94065 45.442C2.91331 45.337 2.8874 45.2261 2.8615 45.1124C2.83703 44.9988 2.81257 44.8836 2.79098 44.7699C2.76939 44.6562 2.74924 44.5425 2.73197 44.436C2.71327 44.3296 2.69887 44.2288 2.68592 44.1381C2.67009 44.0216 2.6557 43.9093 2.63987 43.8086C2.6226 43.7093 2.60389 43.6201 2.57655 43.5495C2.5492 43.479 2.51035 43.4258 2.46861 43.397C2.3909 43.3437 2.30167 43.2804 2.21676 43.2272C2.13185 43.1739 2.04982 43.125 1.9793 43.0761C1.87856 43.007 1.79653 42.9696 1.73896 42.9034C1.70299 42.8602 1.67276 42.7911 1.64974 42.7076C1.74328 43.8258 1.93181 44.7613 2.2182 45.7802C2.30023 46.0493 2.39953 46.3875 2.51754 46.5271C4.0272 48.198 10.7221 52.7284 17.9812 52.7601C20.9271 52.8622 24.145 52.3154 26.806 51.3296C31.0572 49.6918 33.5844 47.7979 34.8119 46.5027L34.8163 46.4969C35.2955 45.2938 35.5488 43.9741 35.6409 42.499C35.6179 42.5925 35.5805 42.6285 35.5315 42.6558Z" fill="#FFFFFF"/>
<path d="M3.05866 44.6231C3.03708 44.6619 3.06154 44.7987 3.0745 44.8908C3.08601 44.9728 3.10616 45.075 3.12774 45.1843C3.14789 45.2937 3.1738 45.4117 3.20114 45.5283C3.22704 45.6449 3.25583 45.7614 3.28317 45.8694C3.31051 45.9788 3.33786 46.0809 3.36232 46.1658C3.40118 46.3026 3.43428 46.4479 3.43284 46.5256C3.43284 46.6048 3.39974 46.6221 3.31627 46.5199C3.2659 46.458 3.22129 46.3731 3.18099 46.2781C3.14214 46.1831 3.10616 46.0795 3.07737 45.9859C3.05579 45.9111 3.02988 45.8276 3.00398 45.7355C2.97807 45.6449 2.95217 45.5441 2.92482 45.4391C2.89892 45.334 2.87158 45.2232 2.84711 45.1095C2.82121 44.9958 2.79818 44.8807 2.77515 44.767C2.75357 44.6533 2.73342 44.5396 2.71615 44.4331C2.69888 44.3266 2.68305 44.2259 2.67153 44.1352C2.65426 44.0172 2.64131 43.9049 2.62404 43.8056C2.60821 43.7049 2.58806 43.6171 2.56072 43.5452C2.53338 43.4746 2.49596 43.4228 2.45278 43.3926C2.37507 43.3394 2.28584 43.276 2.20093 43.2228C2.11602 43.1695 2.03399 43.1206 1.96348 43.0717C1.86274 43.004 1.7807 42.9666 1.72314 42.899C1.67277 42.84 1.63391 42.7292 1.60945 42.6025C1.58642 42.4744 1.57779 42.3262 1.59505 42.1967C1.6152 42.0398 1.67277 42.0283 1.72026 42.0513C1.76775 42.0758 1.83107 42.1161 1.90303 42.1607C1.97499 42.2068 2.05558 42.2571 2.13473 42.3075C2.21389 42.3564 2.2916 42.4039 2.35348 42.4399C2.39954 42.4672 2.45135 42.4989 2.49308 42.4716C2.53482 42.4442 2.5636 42.3507 2.57655 42.1521C2.58375 42.0585 2.59238 41.9621 2.60102 41.8628C2.60965 41.7649 2.61973 41.6656 2.63124 41.5663C2.64275 41.4656 2.6557 41.3663 2.6701 41.267C2.68449 41.1691 2.69888 41.0713 2.71615 40.9763C2.73342 40.8813 2.74925 40.7878 2.7694 40.7C2.7953 40.592 2.82552 40.4611 2.85575 40.3316C2.88597 40.202 2.92051 40.0711 2.95792 39.9559C2.9939 39.8408 3.0342 39.7401 3.07737 39.6667C3.12199 39.5933 3.16804 39.5429 3.21697 39.5357C3.30476 39.5213 3.34362 39.6105 3.34649 39.7329C3.34793 39.8552 3.31339 40.0207 3.2731 40.156C3.24863 40.2394 3.22561 40.3344 3.1997 40.4323C3.17524 40.5302 3.14933 40.6323 3.1263 40.7359C3.10184 40.841 3.08025 40.9475 3.06154 41.0526C3.0414 41.1591 3.02413 41.2627 3.01117 41.3634C2.99678 41.4642 2.98671 41.5577 2.97951 41.6441C2.968 41.7908 2.98959 41.8311 3.02125 41.8211C3.05291 41.8096 3.09608 41.7491 3.13206 41.7031C3.18243 41.6383 3.24288 41.5577 3.30764 41.4742C3.37096 41.3893 3.44004 41.303 3.51056 41.2209C3.58107 41.1403 3.65447 41.0655 3.72499 41.0051C3.79551 40.9446 3.86746 40.8914 3.92791 40.8741C4.00418 40.8496 4.07326 40.8971 4.10492 40.9705C4.13946 41.0439 4.14522 41.149 4.12651 41.2598C4.10636 41.3721 4.06319 41.4901 3.99267 41.5836C3.9423 41.6527 3.88905 41.7232 3.83292 41.7966C3.77824 41.87 3.72211 41.9448 3.66454 42.024C3.60842 42.1031 3.55229 42.1837 3.49904 42.2672C3.44436 42.3492 3.39255 42.4356 3.34218 42.5219C3.29325 42.6083 3.24719 42.6975 3.2069 42.7882C3.16516 42.8788 3.12918 42.9709 3.09608 43.053C3.06154 43.1393 3.04571 43.23 3.04715 43.3207C3.05003 43.4142 3.06586 43.5077 3.09177 43.6042C3.11623 43.7006 3.14933 43.7984 3.18531 43.8978C3.21553 43.9827 3.25007 44.0791 3.29037 44.1827C3.32922 44.2849 3.3724 44.3943 3.41845 44.5065C3.46594 44.6188 3.51343 44.7339 3.5638 44.8476C3.61417 44.9627 3.66454 45.075 3.71491 45.1843C3.76385 45.2923 3.81278 45.3973 3.86027 45.4938C3.90632 45.5902 3.9495 45.6794 3.98835 45.7586C4.03009 45.8435 4.07182 45.937 4.10636 46.0291C4.1409 46.1212 4.16681 46.2119 4.17832 46.291C4.20135 46.4594 4.14234 46.5098 4.05167 46.4292C4.01426 46.3961 3.97252 46.3443 3.93223 46.2853C3.89193 46.2263 3.85163 46.1572 3.81278 46.0896C3.76241 46.0003 3.70628 45.8953 3.64871 45.7845C3.59115 45.6737 3.5307 45.5556 3.47458 45.4391C3.41701 45.3225 3.36089 45.2074 3.31195 45.1023C3.26158 44.9973 3.21841 44.8994 3.18243 44.8246C3.14501 44.7483 3.09464 44.6245 3.0601 44.6216C3.0601 44.6216 3.0601 44.6231 3.05866 44.6231Z" fill="#F04D1C"/>
<path d="M2.3476 41.4356C2.29579 41.5176 2.25118 41.5119 2.21088 41.45C2.17058 41.3867 2.13748 41.2672 2.11014 41.1276C2.08424 40.988 2.06696 40.8297 2.05689 40.6815C2.04538 40.5347 2.0425 40.3994 2.04106 40.3016C2.03674 40.1548 2.08136 39.9936 2.13748 39.8799C2.19361 39.7676 2.26701 39.6986 2.30874 39.7288C2.33752 39.7489 2.35479 39.8137 2.36343 39.8885C2.3735 39.9634 2.37926 40.0526 2.38646 40.1303C2.39365 40.221 2.40372 40.3232 2.4138 40.4282C2.42243 40.5347 2.43107 40.6455 2.43539 40.7592C2.4397 40.8729 2.43683 40.9866 2.42531 41.1003C2.41236 41.2125 2.38933 41.3219 2.35192 41.4255C2.35048 41.4299 2.34904 41.4313 2.3476 41.4356Z" fill="#F04D1C"/>
<path d="M2.44838 44.2351C2.50451 44.4078 2.53473 44.5546 2.54912 44.6827C2.56495 44.8108 2.56351 44.9187 2.5592 45.0137C2.55488 45.1087 2.54768 45.1936 2.54337 45.267C2.53761 45.3576 2.54049 45.4886 2.49156 45.4569C2.4527 45.4296 2.3865 45.3102 2.32749 45.172C2.26993 45.0338 2.21812 44.8727 2.21092 44.7676C2.20517 44.6755 2.19797 44.533 2.20517 44.3963C2.21236 44.2596 2.23395 44.1301 2.27425 44.0782C2.3131 44.025 2.36779 44.0523 2.44263 44.2207C2.44406 44.2279 2.4455 44.2294 2.44838 44.2351Z" fill="#F04D1C"/>
<path d="M4.38547 44.393C4.35093 44.488 4.25738 44.4506 4.13937 44.3801C4.04727 44.324 3.94365 44.275 3.84435 44.2175C3.74792 44.1613 3.65438 44.0894 3.57379 43.9786C3.53061 43.9196 3.49895 43.8361 3.48312 43.7454C3.46585 43.6533 3.46441 43.5555 3.47737 43.4648C3.49032 43.3727 3.52342 43.3108 3.57235 43.2806C3.61984 43.2504 3.68892 43.246 3.74936 43.2777C3.79973 43.3036 3.87313 43.3439 3.94941 43.3784C4.02424 43.4144 4.10627 43.4547 4.17823 43.5065C4.25019 43.5569 4.31783 43.6217 4.35093 43.6979C4.39122 43.79 4.40993 43.9282 4.41569 44.0563C4.42001 44.1844 4.41137 44.3053 4.38978 44.383C4.38834 44.3858 4.38691 44.3887 4.38547 44.393Z" fill="#F04D1C"/>
<path d="M7.74008 47.0647C7.68971 47.1021 7.7041 47.2475 7.70698 47.3425C7.70986 47.4274 7.71849 47.5353 7.72857 47.6504C7.73864 47.7641 7.75015 47.8879 7.7631 48.0102C7.77606 48.1325 7.78901 48.2534 7.80196 48.3671C7.81491 48.4808 7.82499 48.5888 7.8365 48.6765C7.85665 48.8176 7.85377 48.9701 7.8034 49.0464C7.75303 49.1227 7.66093 49.1327 7.52133 49.0133C7.43786 48.9413 7.38173 48.8464 7.34431 48.7471C7.3069 48.6463 7.28531 48.5369 7.27236 48.4391C7.26084 48.3628 7.24933 48.275 7.23638 48.18C7.22343 48.0836 7.21047 47.98 7.19752 47.8706C7.18457 47.7612 7.17162 47.6461 7.1601 47.5267C7.14859 47.4087 7.13708 47.2892 7.127 47.1698C7.11549 47.0503 7.10686 46.9323 7.09822 46.8215C7.08959 46.7092 7.08239 46.6027 7.07519 46.5092C7.068 46.3854 7.0608 46.2689 7.04353 46.1624C7.02626 46.0559 7.0018 45.9609 6.95718 45.8832C6.91257 45.8054 6.84637 45.745 6.76146 45.7047C6.66216 45.6587 6.55135 45.6011 6.43909 45.5493C6.32684 45.496 6.21171 45.4442 6.09945 45.3924C5.98864 45.3406 5.87783 45.2888 5.77709 45.2384C5.67059 45.1852 5.56985 45.1377 5.48062 45.0931C5.39139 45.0485 5.31224 45.0038 5.24892 44.9564C5.17552 44.8988 5.11652 44.8211 5.07334 44.7333C5.03017 44.6469 5.00427 44.5505 4.99563 44.4555C4.987 44.3605 4.99707 44.2627 5.02873 44.1835C5.05895 44.1116 5.10788 44.0785 5.15969 44.0698C5.21294 44.0612 5.27195 44.077 5.32519 44.1001C5.40579 44.1346 5.50365 44.1835 5.61302 44.2339C5.72096 44.2857 5.83897 44.3418 5.95842 44.398C6.07787 44.4541 6.20019 44.5102 6.31389 44.562C6.42902 44.6138 6.53551 44.6599 6.62474 44.6973C6.71253 44.7347 6.81039 44.7765 6.88811 44.7549C6.96438 44.7333 7.01907 44.6412 7.03058 44.4354C7.03634 44.3404 7.04497 44.2382 7.05217 44.136C7.05936 44.0339 7.06656 43.9302 7.07375 43.8266C7.08095 43.7216 7.08959 43.6179 7.09822 43.5143C7.10686 43.4121 7.11693 43.31 7.127 43.2107C7.13852 43.1099 7.14859 43.0106 7.16298 42.92C7.18169 42.8077 7.2004 42.6696 7.21911 42.5328C7.23638 42.3961 7.25653 42.2594 7.28243 42.1371C7.30977 42.0162 7.34287 41.9111 7.38893 41.8348C7.43498 41.7586 7.49542 41.7096 7.56882 41.7039C7.66093 41.6967 7.73288 41.7413 7.78181 41.8075C7.82931 41.8737 7.85665 41.9658 7.86672 42.0665C7.8768 42.1673 7.86672 42.2795 7.84945 42.3731C7.83362 42.4609 7.82211 42.5631 7.80628 42.6652C7.79045 42.7674 7.77462 42.8768 7.76023 42.9862C7.74584 43.097 7.73144 43.2092 7.71993 43.32C7.70842 43.4309 7.69834 43.5417 7.69115 43.6467C7.68395 43.7503 7.68107 43.8511 7.68107 43.9418C7.68107 44.0943 7.71993 44.1389 7.77318 44.1288C7.82355 44.1202 7.88831 44.0583 7.94012 44.0123C8.00056 43.9576 8.06964 43.8943 8.14016 43.8266C8.21068 43.759 8.28264 43.6856 8.35747 43.6151C8.43375 43.5446 8.51002 43.474 8.5863 43.4107C8.66401 43.3474 8.74028 43.2913 8.81656 43.2438C8.89283 43.1963 8.97055 43.1531 9.03819 43.1358C9.15188 43.1085 9.25982 43.156 9.32602 43.2308C9.39078 43.3071 9.42244 43.4165 9.41668 43.5345C9.41093 43.6525 9.36631 43.7791 9.27852 43.8813C9.21376 43.9547 9.14181 44.031 9.06841 44.1087C8.99501 44.1878 8.9173 44.2699 8.83815 44.3534C8.76043 44.4383 8.67984 44.5232 8.60069 44.611C8.52297 44.6987 8.44382 44.7865 8.36898 44.8772C8.29415 44.9664 8.22075 45.0585 8.15455 45.1506C8.08691 45.2442 8.02503 45.3377 7.9689 45.4226C7.9099 45.5104 7.87968 45.604 7.87968 45.7004C7.87824 45.7968 7.90414 45.899 7.94156 46.0012C7.97898 46.1048 8.03223 46.2098 8.08547 46.3149C8.12577 46.3926 8.17038 46.4804 8.21931 46.5725C8.26968 46.6646 8.32293 46.761 8.37762 46.8618C8.43375 46.9625 8.49275 47.0661 8.55176 47.1698C8.6122 47.2734 8.67264 47.377 8.73309 47.4792C8.79497 47.5814 8.85398 47.6807 8.91298 47.7771C8.97199 47.8721 9.02811 47.9627 9.08136 48.0476C9.13461 48.1325 9.18498 48.2117 9.22815 48.2808C9.28284 48.37 9.33753 48.4679 9.37783 48.5643C9.41812 48.6607 9.44259 48.7571 9.44115 48.8406C9.43827 48.9284 9.40661 48.9888 9.35336 49.0147C9.30299 49.0406 9.23247 49.032 9.15764 48.9903C9.09575 48.9557 9.03387 48.9025 8.97486 48.8392C8.91586 48.7773 8.85973 48.7039 8.80792 48.6334C8.75324 48.5571 8.69279 48.4707 8.63091 48.3786C8.56903 48.288 8.50426 48.1901 8.4395 48.0922C8.37618 47.9929 8.31286 47.8922 8.25098 47.7943C8.18909 47.6965 8.13153 47.6029 8.07828 47.5166C8.02503 47.4302 7.9761 47.3482 7.9358 47.2863C7.87968 47.2029 7.80772 47.0705 7.7444 47.0633C7.74296 47.0633 7.74152 47.0647 7.74008 47.0647Z" fill="#F04D1C"/>
<path d="M6.54842 43.6431C6.48078 43.705 6.4117 43.7078 6.34406 43.6675C6.27786 43.6272 6.21166 43.5452 6.14978 43.4387C6.0879 43.3322 6.03033 43.2027 5.97852 43.0689C5.92815 42.9365 5.88354 42.7983 5.84468 42.6731C5.80726 42.5479 5.77704 42.4356 5.75402 42.3493C5.72379 42.2413 5.72955 42.1305 5.75833 42.037C5.78712 41.9434 5.83892 41.8657 5.89793 41.8197C5.95693 41.7736 6.02745 41.7564 6.0879 41.7866C6.14978 41.8168 6.19871 41.8902 6.24045 41.9751C6.28218 42.06 6.3196 42.1579 6.3527 42.2457C6.39156 42.345 6.43617 42.4587 6.47934 42.5752C6.52252 42.6918 6.56425 42.8141 6.59448 42.9365C6.6247 43.0588 6.64341 43.1825 6.63909 43.2991C6.63621 43.4171 6.61175 43.5308 6.55562 43.6344C6.55274 43.6388 6.5513 43.6402 6.54842 43.6431Z" fill="#F04D1C"/>
<path d="M6.58166 46.5595C6.63779 46.699 6.66225 46.8214 6.66369 46.9279C6.66657 47.0344 6.64642 47.125 6.61476 47.2056C6.5831 47.2848 6.53992 47.3524 6.49387 47.4129C6.44926 47.4733 6.40177 47.5309 6.36147 47.5769C6.29095 47.6575 6.20748 47.7727 6.08515 47.7122C6.02471 47.682 5.95851 47.6071 5.90238 47.5179C5.84626 47.4287 5.79876 47.3208 5.7743 47.22C5.74839 47.1193 5.74408 47.0229 5.77574 46.961C5.80596 46.8991 5.8477 46.8113 5.90094 46.7178C5.95275 46.6257 6.01608 46.5292 6.08803 46.4544C6.15855 46.381 6.2377 46.3306 6.32117 46.3364C6.40321 46.3407 6.48811 46.4011 6.57302 46.5436C6.5759 46.5494 6.57878 46.5537 6.58166 46.5595Z" fill="#F04D1C"/>
<path d="M10.0745 46.7976C10.0443 46.8509 9.99534 46.8696 9.9277 46.8653C9.8615 46.8624 9.77371 46.8394 9.67728 46.8063C9.57942 46.7703 9.47005 46.7358 9.36211 46.7027C9.25418 46.6696 9.14624 46.635 9.04406 46.5875C8.94188 46.5415 8.84546 46.4825 8.75911 46.4047C8.69003 46.3414 8.6411 46.2536 8.61663 46.1572C8.59361 46.0608 8.59361 45.9557 8.61663 45.8622C8.63966 45.7643 8.69579 45.6996 8.7735 45.6665C8.85265 45.6348 8.96203 45.629 9.06277 45.6607C9.14624 45.6866 9.26425 45.7255 9.38658 45.7586C9.5089 45.7931 9.63699 45.8305 9.75212 45.8795C9.86725 45.927 9.97375 45.9874 10.027 46.0651C10.0687 46.1256 10.0961 46.2148 10.1119 46.304C10.1292 46.3918 10.1335 46.4839 10.1277 46.5688C10.122 46.6537 10.1061 46.7314 10.0817 46.7876C10.0788 46.7919 10.0774 46.7933 10.0745 46.7976Z" fill="#F04D1C"/>
<path d="M14.9503 49.0192C14.8769 49.0738 14.8885 49.225 14.8856 49.3257C14.8827 49.4164 14.887 49.5315 14.8913 49.6524C14.8942 49.7733 14.9 49.9028 14.9043 50.0323C14.91 50.1604 14.9144 50.2885 14.9201 50.4079C14.923 50.5288 14.923 50.644 14.9287 50.7361C14.9345 50.8325 14.9259 50.9447 14.8913 51.0325C14.8554 51.1217 14.7978 51.1923 14.7158 51.2254C14.6337 51.2585 14.5243 51.2556 14.3963 51.1937C14.2811 51.139 14.2135 51.0498 14.1732 50.949C14.1329 50.8483 14.1199 50.7346 14.1156 50.631C14.1113 50.549 14.1056 50.4569 14.1012 50.3561C14.0969 50.2554 14.0912 50.146 14.0868 50.0294C14.0825 49.9129 14.0782 49.792 14.0725 49.6668C14.0681 49.5416 14.0624 49.4149 14.0581 49.2883C14.0537 49.1631 14.048 49.0379 14.0437 48.9199C14.0394 48.8018 14.035 48.6896 14.0307 48.5903C14.025 48.4608 14.0192 48.337 13.9991 48.2262C13.9789 48.1168 13.9429 48.0218 13.8825 47.9484C13.8206 47.8765 13.7285 47.8275 13.6047 47.8031C13.5213 47.7872 13.4292 47.7642 13.3356 47.7441C13.2421 47.7254 13.1456 47.7067 13.0478 47.6879C12.9499 47.6678 12.8506 47.6477 12.7528 47.6289C12.6549 47.6088 12.557 47.5886 12.4606 47.5685C12.3656 47.5469 12.2721 47.5268 12.1814 47.5052C12.0764 47.4793 11.9756 47.4562 11.8806 47.4347C11.7857 47.4116 11.6964 47.39 11.6158 47.367C11.5338 47.344 11.4604 47.3195 11.3971 47.2907C11.2877 47.2418 11.1999 47.167 11.1366 47.0806C11.0733 46.9928 11.0344 46.8935 11.0229 46.7942C11.01 46.6935 11.0258 46.5884 11.0718 46.5021C11.115 46.4215 11.1884 46.3812 11.2661 46.3654C11.3438 46.3495 11.4302 46.3567 11.5108 46.374C11.5899 46.3913 11.6835 46.4114 11.7813 46.4345C11.8806 46.4575 11.9871 46.4819 12.0994 46.5064C12.2102 46.5309 12.3253 46.5568 12.4419 46.5827C12.5585 46.6072 12.675 46.6316 12.7887 46.6546C12.9024 46.6777 13.0118 46.6993 13.1154 46.718C13.219 46.7367 13.314 46.7539 13.3989 46.7683C13.4824 46.7813 13.5716 46.7957 13.6537 46.7942C13.7343 46.7899 13.8091 46.7698 13.8623 46.7122C13.9156 46.6532 13.9458 46.5553 13.9487 46.4129C13.9501 46.3121 13.953 46.2042 13.953 46.0977C13.9544 45.9912 13.953 45.8818 13.953 45.7739C13.9516 45.6631 13.9501 45.5551 13.9487 45.4472C13.9473 45.3393 13.9458 45.2313 13.9458 45.1277C13.9444 45.0241 13.9429 44.9176 13.9473 44.824C13.9544 44.7046 13.9559 44.5592 13.953 44.4168C13.9501 44.2729 13.9487 44.1289 13.9573 44.0009C13.966 43.8728 13.9847 43.7591 14.0264 43.6727C14.0681 43.5864 14.1329 43.5231 14.2279 43.5029C14.3445 43.4784 14.4481 43.5072 14.5243 43.5634C14.6035 43.6209 14.6611 43.7087 14.697 43.808C14.733 43.9073 14.7445 44.0239 14.7431 44.1203C14.7417 44.211 14.746 44.3189 14.746 44.4254C14.746 44.5348 14.7445 44.647 14.7445 44.7622C14.7445 44.8787 14.7445 44.9953 14.746 45.1119C14.7474 45.2284 14.7503 45.3436 14.7561 45.453C14.7618 45.5609 14.7676 45.6645 14.7791 45.7581C14.7963 45.9164 14.8539 45.9509 14.9216 45.9293C14.9892 45.9077 15.0683 45.8286 15.1317 45.7696C15.2051 45.7005 15.2885 45.6185 15.3706 45.5321C15.454 45.4458 15.5375 45.3551 15.6253 45.2644C15.7116 45.1738 15.7994 45.0845 15.8887 45.0011C15.9764 44.919 16.0657 44.8413 16.1535 44.7751C16.2427 44.7089 16.3334 44.6456 16.4154 44.6125C16.5233 44.5679 16.6341 44.5708 16.719 44.5981C16.804 44.6254 16.8702 44.6801 16.9148 44.7507C16.9579 44.8226 16.9781 44.9118 16.9695 45.0083C16.9608 45.1047 16.9234 45.2069 16.8486 45.3018C16.7881 45.3796 16.7219 45.4616 16.65 45.5465C16.5794 45.6314 16.5046 45.7178 16.4269 45.807C16.3492 45.8962 16.2686 45.9883 16.188 46.0804C16.1074 46.174 16.0254 46.2675 15.9448 46.3625C15.8642 46.4575 15.7836 46.5539 15.7059 46.6489C15.6282 46.7453 15.5519 46.8417 15.4814 46.9382C15.4094 47.0331 15.3418 47.1296 15.2799 47.2173C15.2022 47.3238 15.1662 47.4289 15.1662 47.5311C15.1676 47.6333 15.2036 47.7326 15.2569 47.8333C15.3087 47.9326 15.3806 48.0305 15.4555 48.1283C15.5087 48.2003 15.5706 48.2809 15.6368 48.3658C15.703 48.4507 15.775 48.5399 15.8498 48.632C15.9232 48.7227 16.0024 48.8177 16.0801 48.9112C16.1592 49.0048 16.2398 49.0983 16.319 49.189C16.3981 49.2796 16.4758 49.3689 16.5521 49.4538C16.6284 49.5372 16.7003 49.6178 16.7694 49.6927C16.8371 49.7675 16.9004 49.8366 16.9579 49.8985C17.027 49.9747 17.0961 50.064 17.1436 50.1532C17.1925 50.2453 17.2199 50.3403 17.2098 50.4295C17.1997 50.5245 17.1479 50.6008 17.0731 50.644C16.9982 50.6886 16.8989 50.7015 16.7996 50.6799C16.7162 50.6627 16.6341 50.6238 16.5579 50.5749C16.4801 50.5259 16.4082 50.4655 16.342 50.4036C16.2715 50.3389 16.1938 50.264 16.1146 50.1834C16.0355 50.1028 15.952 50.0165 15.8699 49.9301C15.7865 49.8409 15.7044 49.7517 15.6253 49.6639C15.5476 49.5761 15.4713 49.4912 15.4008 49.4135C15.3317 49.3358 15.2669 49.2595 15.2137 49.2048C15.1403 49.13 15.0468 49.0076 14.9561 49.0177C14.9547 49.0177 14.9532 49.0192 14.9503 49.0192Z" fill="#F04D1C"/>
<path d="M13.2146 45.6915C13.1427 45.7548 13.065 45.7778 12.9858 45.7663C12.9052 45.7548 12.8232 45.7102 12.7412 45.6425C12.6591 45.5763 12.5771 45.4871 12.4994 45.3878C12.4217 45.2885 12.3468 45.1791 12.2763 45.0697C12.2072 44.9589 12.1439 44.8496 12.0878 44.7503C12.0317 44.6524 11.9842 44.5617 11.9439 44.4912C11.8863 44.3833 11.8748 44.2681 11.8964 44.1674C11.9194 44.0667 11.9727 43.9803 12.0446 43.9227C12.1166 43.8666 12.2072 43.8378 12.295 43.858C12.3871 43.8796 12.4677 43.9472 12.5411 44.0278C12.6145 44.107 12.6836 44.2019 12.7455 44.2854C12.8016 44.3617 12.8649 44.448 12.9282 44.5358C12.9916 44.6236 13.0549 44.7157 13.111 44.8107C13.1671 44.9042 13.2161 45.0007 13.2506 45.0985C13.2837 45.1964 13.3039 45.2943 13.3024 45.3921C13.301 45.49 13.278 45.5864 13.2247 45.6799C13.2204 45.6843 13.219 45.6871 13.2146 45.6915Z" fill="#F04D1C"/>
<path d="M13.3053 48.7579C13.3772 48.8961 13.4032 49.0227 13.396 49.1364C13.3888 49.2516 13.3499 49.3537 13.2923 49.4473C13.2348 49.5408 13.1599 49.6243 13.0808 49.7006C13.0031 49.7768 12.921 49.8488 12.8491 49.9092C12.7858 49.9611 12.7138 50.0229 12.639 50.0661C12.5641 50.1093 12.4778 50.1366 12.3842 50.115C12.2936 50.0949 12.2 50.0273 12.1266 49.9395C12.0547 49.8531 11.9985 49.7452 11.9755 49.6401C11.9539 49.5351 11.964 49.4329 12.023 49.3581C12.0705 49.3005 12.131 49.2213 12.2015 49.1364C12.272 49.0515 12.3526 48.958 12.4389 48.8716C12.5253 48.7867 12.6188 48.7076 12.7152 48.6514C12.8117 48.5953 12.9095 48.5651 13.0074 48.5752C13.1053 48.5852 13.2031 48.6356 13.2952 48.7435C13.2981 48.7493 13.301 48.7522 13.3053 48.7579Z" fill="#F04D1C"/>
<path d="M18.1251 48.0677C18.0877 48.1325 18.0229 48.167 17.9337 48.1843C17.8459 48.2016 17.7308 48.2045 17.6027 48.1973C17.5048 48.1915 17.3969 48.1872 17.2904 48.1843C17.1825 48.1829 17.0745 48.1814 16.9666 48.1742C16.8601 48.1685 16.755 48.157 16.6543 48.1368C16.555 48.1152 16.4586 48.085 16.3722 48.0404C16.2772 47.9929 16.2096 47.9123 16.1751 47.8173C16.142 47.7238 16.1405 47.613 16.1679 47.5079C16.1866 47.436 16.224 47.3741 16.2787 47.3266C16.3319 47.2777 16.4024 47.2417 16.483 47.2172C16.5636 47.1927 16.6601 47.174 16.7536 47.1784C16.8371 47.1812 16.9493 47.1884 17.0659 47.1884C17.1825 47.1884 17.3077 47.1884 17.43 47.1927C17.5538 47.1956 17.6732 47.2043 17.7783 47.223C17.8833 47.2417 17.9812 47.2705 18.0359 47.3194C18.0934 47.3669 18.1337 47.4532 18.1582 47.5396C18.1841 47.6259 18.1942 47.7209 18.1884 47.8116C18.1841 47.9008 18.1654 47.9872 18.1337 48.0548C18.1294 48.0591 18.128 48.062 18.1251 48.0677Z" fill="#F04D1C"/>
<path d="M23.6284 48.7813C23.5565 48.8591 23.5651 49.0087 23.5593 49.1152C23.555 49.2073 23.555 49.3239 23.555 49.4448C23.5536 49.5686 23.5536 49.6981 23.5521 49.8276C23.5521 49.9586 23.5507 50.0866 23.5478 50.2075C23.5449 50.327 23.5377 50.4436 23.5363 50.5371C23.5363 50.6335 23.5205 50.7501 23.4816 50.8508C23.4413 50.953 23.3794 51.0437 23.2974 51.1056C23.2154 51.1674 23.1103 51.2005 22.9866 51.1818C22.8786 51.1646 22.8139 51.0955 22.7808 51.0077C22.7477 50.9185 22.7419 50.8048 22.7433 50.7012C22.7433 50.6191 22.7448 50.527 22.7448 50.4248C22.7462 50.3227 22.7462 50.2119 22.7477 50.0938C22.7491 49.9773 22.7491 49.8535 22.7491 49.7269C22.7477 49.6002 22.7477 49.4707 22.7462 49.344C22.7448 49.216 22.7419 49.0908 22.739 48.9699C22.7361 48.8504 22.7318 48.7382 22.7289 48.636C22.7232 48.505 22.7174 48.3798 22.6958 48.2733C22.6743 48.1668 22.6383 48.0805 22.575 48.0258C22.5102 47.9711 22.4167 47.951 22.2871 47.9653C22.2008 47.9754 22.1029 47.9826 22.0051 47.9927C21.9058 48.0042 21.8021 48.0157 21.6971 48.0272C21.5906 48.0402 21.4826 48.0517 21.3747 48.0646C21.2668 48.0762 21.1574 48.0877 21.0495 48.0977C20.943 48.1078 20.8365 48.1165 20.7329 48.1251C20.6134 48.1323 20.4954 48.1424 20.3846 48.151C20.2738 48.1582 20.1673 48.1654 20.0708 48.1683C19.973 48.1711 19.8838 48.1697 19.8075 48.1611C19.6736 48.1452 19.5643 48.0963 19.4837 48.0258C19.4045 47.9553 19.3527 47.8632 19.3354 47.7624C19.3167 47.6631 19.3311 47.5494 19.3844 47.4458C19.4347 47.3494 19.5211 47.2861 19.6132 47.2443C19.7067 47.204 19.8118 47.1839 19.9082 47.1767C19.9903 47.1681 20.0824 47.1623 20.1802 47.1551C20.2781 47.1479 20.3831 47.1407 20.4911 47.1321C20.599 47.1249 20.7098 47.1148 20.8221 47.1062C20.9343 47.0961 21.0466 47.086 21.1574 47.076C21.2682 47.0644 21.3776 47.0529 21.4826 47.0429C21.5863 47.0313 21.687 47.0184 21.7791 47.0069C21.8712 46.9954 21.9576 46.9838 22.0338 46.9738C22.1216 46.9608 22.2152 46.9479 22.2986 46.9191C22.3836 46.8903 22.4569 46.8457 22.5088 46.7723C22.5591 46.696 22.5836 46.5881 22.575 46.4456C22.5692 46.3449 22.5649 46.2369 22.5562 46.129C22.5476 46.0225 22.5361 45.9146 22.5246 45.8052C22.5131 45.6973 22.5001 45.5893 22.4857 45.4828C22.4728 45.3763 22.4598 45.2713 22.4454 45.1676C22.4325 45.064 22.4167 44.9604 22.408 44.8669C22.3979 44.7489 22.3792 44.6049 22.3533 44.4653C22.3289 44.3272 22.303 44.1862 22.29 44.0595C22.2756 43.9329 22.2742 43.8177 22.3001 43.7227C22.3245 43.6278 22.3778 43.5486 22.467 43.5026C22.5764 43.4436 22.6829 43.4436 22.7692 43.4752C22.8556 43.5069 22.9275 43.5731 22.9808 43.6594C23.0326 43.7443 23.0643 43.8523 23.0787 43.9473C23.093 44.035 23.1146 44.1372 23.1319 44.2437C23.1477 44.3473 23.1636 44.4582 23.1808 44.5718C23.1967 44.6841 23.2125 44.8007 23.2283 44.9144C23.2442 45.0281 23.2614 45.1403 23.2787 45.2468C23.296 45.3533 23.3132 45.4526 23.3334 45.5418C23.3665 45.6929 23.4226 45.7116 23.4859 45.6699C23.5478 45.6296 23.614 45.5274 23.6673 45.4497C23.7292 45.3591 23.7982 45.2554 23.8644 45.1461C23.9306 45.0381 23.9983 44.9244 24.0659 44.8107C24.1336 44.6985 24.2012 44.5862 24.2703 44.4812C24.3379 44.3747 24.4055 44.2768 24.4746 44.1876C24.5437 44.0998 24.6128 44.0149 24.6804 43.9602C24.7668 43.8897 24.8632 43.8623 24.9395 43.8667C25.0157 43.871 25.0805 43.907 25.128 43.9645C25.1741 44.0235 25.2043 44.1041 25.2086 44.2005C25.2143 44.2955 25.1942 44.4049 25.1438 44.5157C25.1064 44.5963 25.0661 44.6827 25.0215 44.769C24.9769 44.8582 24.9308 44.9489 24.8805 45.0424C24.8315 45.136 24.7783 45.2324 24.725 45.3303C24.6718 45.4296 24.6157 45.5289 24.5595 45.6311C24.5034 45.7318 24.4473 45.834 24.3912 45.9362C24.3336 46.0398 24.2775 46.142 24.2228 46.2441C24.1667 46.3463 24.112 46.4499 24.0602 46.5507C24.0083 46.6528 23.9594 46.7536 23.9119 46.8457C23.8443 46.9767 23.8141 47.0932 23.8184 47.1968C23.8241 47.3005 23.8587 47.3911 23.9105 47.4775C23.9623 47.5624 24.0314 47.643 24.1005 47.7193C24.1609 47.7855 24.2285 47.8603 24.3005 47.9394C24.3739 48.0186 24.4516 48.1021 24.5308 48.1855C24.6099 48.269 24.6905 48.3539 24.7711 48.4359C24.8502 48.5194 24.9294 48.6 25.0042 48.6777C25.0805 48.754 25.151 48.8274 25.2172 48.8936C25.2834 48.9612 25.3453 49.0231 25.3957 49.0764C25.4518 49.1354 25.5036 49.2045 25.5396 49.2822C25.5741 49.3599 25.59 49.4477 25.577 49.5412C25.5626 49.6391 25.5151 49.7283 25.4504 49.7945C25.3856 49.8593 25.3021 49.8996 25.2201 49.9068C25.151 49.9125 25.0834 49.8981 25.0215 49.8708C24.9582 49.8434 24.8992 49.8031 24.8445 49.7628C24.7725 49.7067 24.6919 49.6376 24.6085 49.5628C24.5236 49.488 24.4343 49.4074 24.3465 49.3268C24.2588 49.2447 24.171 49.1627 24.0904 49.0864C24.0098 49.0116 23.9349 48.9368 23.8731 48.8878C23.8069 48.836 23.7191 48.7396 23.6327 48.777C23.6313 48.7799 23.6299 48.7799 23.6284 48.7813Z" fill="#F04D1C"/>
<path d="M21.7589 45.9521C21.6884 46.0385 21.6078 46.0845 21.5215 46.0989C21.4351 46.1119 21.343 46.0932 21.2466 46.0514C21.1516 46.0097 21.0523 45.9464 20.9559 45.8715C20.858 45.7967 20.763 45.7103 20.6724 45.6225C20.5803 45.5348 20.4953 45.4441 20.4191 45.3621C20.3414 45.2815 20.2737 45.2066 20.219 45.1476C20.1356 45.0584 20.1053 44.9476 20.114 44.8411C20.1226 44.7346 20.1701 44.6324 20.2406 44.5547C20.3111 44.477 20.4076 44.4223 20.5097 44.4165C20.6162 44.4108 20.7184 44.4525 20.8105 44.5087C20.9041 44.5648 20.9962 44.6382 21.0768 44.7015C21.1502 44.7591 21.2307 44.8253 21.3113 44.8929C21.3919 44.9605 21.4725 45.0325 21.5445 45.1073C21.6164 45.1836 21.6812 45.2656 21.7287 45.3506C21.7776 45.4369 21.8093 45.529 21.8194 45.6269C21.828 45.7233 21.8136 45.8283 21.7675 45.9377C21.7632 45.9435 21.7618 45.9464 21.7589 45.9521Z" fill="#F04D1C"/>
<path d="M21.9748 49.0478C22.0353 49.1442 22.0626 49.2406 22.0669 49.3371C22.0698 49.4335 22.0497 49.5299 22.0122 49.6234C21.9748 49.7184 21.9216 49.812 21.8597 49.9012C21.7964 49.9919 21.7259 50.0782 21.6539 50.1617C21.5819 50.2437 21.5085 50.3257 21.4423 50.3948C21.369 50.4725 21.2869 50.5603 21.1991 50.6323C21.1128 50.7028 21.0149 50.7618 20.907 50.7733C20.8034 50.7834 20.6983 50.7445 20.6177 50.6798C20.5371 50.615 20.4781 50.5229 20.4565 50.4207C20.4364 50.3185 20.4537 50.2063 20.5271 50.1084C20.576 50.0437 20.635 49.9616 20.7012 49.871C20.7688 49.7803 20.8437 49.6796 20.9243 49.5788C21.0048 49.4781 21.0898 49.3773 21.1761 49.2867C21.2639 49.196 21.3546 49.1154 21.4438 49.055C21.533 48.996 21.6237 48.9571 21.7115 48.9514C21.7978 48.9442 21.8842 48.9701 21.9633 49.0363C21.9691 49.042 21.9705 49.0435 21.9748 49.0478Z" fill="#F04D1C"/>
<path d="M26.3713 46.9322C26.3425 47.007 26.2907 47.0574 26.2217 47.0963C26.1526 47.1351 26.0605 47.1668 25.9554 47.1927C25.8777 47.2114 25.7885 47.2344 25.7007 47.2603C25.6129 47.2862 25.5222 47.3121 25.4316 47.3352C25.3423 47.3582 25.2531 47.3755 25.1668 47.3812C25.0804 47.3884 24.9969 47.3827 24.9207 47.364C24.8372 47.3424 24.7768 47.279 24.7437 47.1927C24.712 47.1063 24.7077 46.9955 24.7278 46.8818C24.7408 46.8041 24.7724 46.7322 24.8171 46.6688C24.8631 46.6055 24.9221 46.5494 24.9898 46.5033C25.0588 46.4559 25.1409 46.4112 25.2215 46.3897C25.2905 46.3709 25.387 46.3479 25.4834 46.3177C25.5812 46.2889 25.6863 46.2558 25.787 46.2285C25.8863 46.1997 25.9842 46.1781 26.0705 46.1709C26.1555 46.1651 26.2346 46.1709 26.2792 46.204C26.3253 46.2385 26.3613 46.3134 26.3843 46.394C26.4073 46.4746 26.4174 46.5667 26.4159 46.6588C26.4145 46.7509 26.4016 46.8415 26.3771 46.9164C26.3742 46.9236 26.3728 46.9265 26.3713 46.9322Z" fill="#F04D1C"/>
<path d="M30.4225 46.5942C30.3693 46.6805 30.3664 46.8259 30.3549 46.9324C30.3448 47.0231 30.3376 47.1382 30.3275 47.2576C30.316 47.3785 30.3045 47.5066 30.2916 47.6347C30.2786 47.7613 30.2642 47.888 30.2484 48.006C30.2326 48.1226 30.2139 48.2363 30.2009 48.3298C30.188 48.4219 30.1635 48.537 30.1232 48.6421C30.0829 48.7457 30.0296 48.8421 29.9663 48.9141C29.903 48.9861 29.8282 49.035 29.749 49.0364C29.6785 49.0379 29.6454 48.9817 29.6339 48.9011C29.6224 48.8206 29.6324 48.7126 29.6468 48.6104C29.6569 48.5313 29.6684 48.4406 29.6799 48.3413C29.6914 48.242 29.703 48.1326 29.7159 48.0175C29.7274 47.9024 29.7389 47.78 29.749 47.6563C29.7591 47.5325 29.7677 47.4059 29.7749 47.2792C29.7821 47.154 29.7879 47.0303 29.7907 46.9122C29.7951 46.7942 29.7965 46.6834 29.7979 46.5841C29.7994 46.4532 29.7979 46.3308 29.785 46.2287C29.7706 46.1279 29.7461 46.0473 29.7001 46.0027C29.6555 45.9581 29.5878 45.9538 29.4943 45.9883C29.4166 46.0185 29.3259 46.0488 29.2338 46.0847C29.1417 46.1207 29.0453 46.1596 28.946 46.1984C28.8481 46.2373 28.7474 46.2776 28.6481 46.3164C28.5488 46.3553 28.4495 46.3927 28.353 46.4258C28.2638 46.4575 28.176 46.4906 28.0926 46.5208C28.0091 46.551 27.9314 46.5798 27.858 46.6028C27.7846 46.6244 27.7184 46.6417 27.6594 46.6489C27.5601 46.6618 27.4752 46.6359 27.4147 46.5812C27.3528 46.528 27.3125 46.4474 27.2967 46.351C27.2809 46.2546 27.2881 46.1394 27.3255 46.0257C27.36 45.9178 27.4219 45.8372 27.491 45.7768C27.5601 45.7178 27.6392 45.676 27.7112 45.6487C27.7975 45.6156 27.8997 45.5796 28.0076 45.5393C28.1141 45.5004 28.2307 45.4587 28.3458 45.4155C28.4624 45.3738 28.5804 45.3306 28.6956 45.286C28.8093 45.2428 28.9186 45.2011 29.0194 45.1608C29.1201 45.1205 29.2122 45.0831 29.2899 45.05C29.3532 45.0226 29.4209 44.9953 29.4813 44.9536C29.5418 44.9118 29.5936 44.8557 29.6281 44.7751C29.6612 44.6945 29.6742 44.5866 29.6598 44.4484C29.6497 44.3506 29.6382 44.2469 29.6252 44.1448C29.6109 44.0426 29.5936 43.939 29.5763 43.8354C29.5576 43.7332 29.5389 43.631 29.5173 43.5303C29.4972 43.4295 29.4756 43.3302 29.454 43.2338C29.4324 43.1374 29.4079 43.0409 29.3907 42.9517C29.3676 42.8395 29.3331 42.7056 29.2957 42.5775C29.2583 42.4495 29.2165 42.3228 29.1863 42.2048C29.1561 42.0882 29.1359 41.9803 29.1374 41.8882C29.1403 41.7946 29.1647 41.7141 29.2237 41.6565C29.2957 41.586 29.3748 41.5687 29.4454 41.5845C29.5159 41.6004 29.5806 41.6507 29.6353 41.7227C29.6886 41.7946 29.7303 41.8896 29.7562 41.9774C29.7807 42.058 29.8123 42.1516 29.8411 42.248C29.8685 42.3444 29.8958 42.4466 29.9231 42.5516C29.9505 42.6567 29.9764 42.7646 30.0023 42.8726C30.0282 42.9791 30.0527 43.0841 30.0757 43.1834C30.1002 43.2827 30.1232 43.3763 30.1448 43.4597C30.1836 43.6008 30.2254 43.6094 30.2671 43.5619C30.3088 43.513 30.3477 43.4065 30.3794 43.3245C30.4153 43.2295 30.4556 43.1201 30.4931 43.0064C30.529 42.8942 30.565 42.7761 30.601 42.6596C30.637 42.543 30.6715 42.4279 30.7075 42.3199C30.7435 42.2106 30.7794 42.1084 30.8169 42.0177C30.8528 41.9256 30.8903 41.8393 30.932 41.7774C30.9996 41.6781 31.0889 41.6464 31.1594 41.6666C31.2285 41.6867 31.2889 41.7587 31.3234 41.8623C31.3594 41.9673 31.3709 42.1055 31.3407 42.2537C31.3206 42.3458 31.299 42.4437 31.2731 42.5459C31.2472 42.6481 31.2198 42.756 31.1882 42.8654C31.1579 42.9762 31.1248 43.0913 31.0903 43.2079C31.0558 43.3245 31.0183 43.4439 30.9809 43.5648C30.9435 43.6842 30.9046 43.8066 30.8658 43.9275C30.8269 44.0498 30.7881 44.1721 30.7507 44.2916C30.7132 44.411 30.6773 44.5305 30.6413 44.6427C30.5981 44.7794 30.5794 44.8974 30.5837 44.9982C30.5895 45.1004 30.6154 45.1853 30.6514 45.2644C30.6888 45.3436 30.7363 45.4127 30.7838 45.4803C30.8327 45.5508 30.8888 45.6314 30.9478 45.7163C31.0054 45.8012 31.0673 45.889 31.1277 45.9782C31.1882 46.066 31.2486 46.1553 31.3033 46.2402C31.3594 46.3236 31.4112 46.4042 31.4587 46.4791C31.5048 46.5525 31.5465 46.6187 31.5782 46.6762C31.6084 46.7295 31.6343 46.7928 31.6472 46.8662C31.6616 46.9381 31.6616 47.0231 31.6415 47.1166C31.6199 47.213 31.5782 47.3051 31.5292 47.3742C31.4803 47.4447 31.4227 47.4922 31.3709 47.5066C31.2831 47.5311 31.2097 47.475 31.1522 47.4059C31.0989 47.3425 31.037 47.2605 30.9723 47.1727C30.9061 47.0835 30.8356 46.9885 30.7679 46.8993C30.7017 46.8086 30.637 46.7194 30.5837 46.6662C30.5434 46.6244 30.4873 46.5395 30.4254 46.5884C30.424 46.5913 30.424 46.5913 30.4225 46.5942Z" fill="#F04D1C"/>
<path d="M29.0208 44.1036C28.9675 44.2188 28.8985 44.2806 28.8179 44.3008C28.7387 44.3195 28.6495 44.2993 28.5559 44.2533C28.4624 44.2087 28.366 44.1382 28.2695 44.0604C28.1746 43.9827 28.081 43.8978 27.9975 43.8172C27.9126 43.7381 27.8378 43.6647 27.7788 43.61C27.704 43.5409 27.6665 43.4402 27.6593 43.3351C27.6507 43.2315 27.6723 43.125 27.7155 43.0372C27.7572 42.9509 27.8234 42.8789 27.8997 42.8544C27.9788 42.8285 28.0623 42.8487 28.1415 42.8861C28.2206 42.9221 28.3012 42.9739 28.3703 43.0199C28.4494 43.0718 28.5387 43.1336 28.625 43.1998C28.7114 43.2646 28.7948 43.338 28.8639 43.4215C28.9344 43.5049 28.9906 43.5999 29.0208 43.7107C29.0524 43.8201 29.0582 43.9453 29.0265 44.0878C29.0251 44.095 29.0237 44.0979 29.0208 44.1036Z" fill="#F04D1C"/>
<path d="M29.2438 47.1164C29.2826 47.1998 29.297 47.2905 29.2941 47.3855C29.2913 47.479 29.2697 47.5783 29.238 47.6776C29.2049 47.7784 29.1603 47.8791 29.1085 47.9784C29.0567 48.0792 28.9991 48.177 28.9401 48.272C28.8825 48.367 28.8235 48.4591 28.7689 48.5411C28.7099 48.6303 28.6422 48.7325 28.5731 48.8203C28.5041 48.9067 28.4278 48.9829 28.3486 49.016C28.2752 49.0477 28.2018 49.0304 28.1486 48.9844C28.0968 48.9369 28.0622 48.8577 28.055 48.7613C28.0478 48.6649 28.0694 48.5498 28.1299 48.4389C28.1702 48.3655 28.2191 48.272 28.2752 48.1684C28.3299 48.0648 28.3904 47.9511 28.4551 47.8359C28.5184 47.7208 28.5861 47.6042 28.6537 47.4977C28.7228 47.3912 28.7904 47.2934 28.8581 47.2185C28.9257 47.1423 28.9934 47.0876 29.0567 47.066C29.12 47.043 29.1805 47.0545 29.2351 47.1063C29.2395 47.1092 29.2409 47.112 29.2438 47.1164Z" fill="#F04D1C"/>
<path d="M32.3235 44.4811C32.3048 44.5574 32.2702 44.6106 32.2242 44.6538C32.1781 44.697 32.1177 44.7358 32.0486 44.7689C31.9795 44.802 31.8989 44.8452 31.8183 44.8898C31.7392 44.9344 31.6572 44.9791 31.5766 45.0064C31.4974 45.0366 31.4197 45.0481 31.3521 45.0337C31.2945 45.0208 31.2528 44.9647 31.2297 44.8826C31.2082 44.7992 31.2024 44.6912 31.2153 44.5775C31.2269 44.461 31.2657 44.353 31.3233 44.2638C31.3808 44.1731 31.4614 44.0882 31.542 44.0451C31.6025 44.0134 31.6975 43.963 31.7881 43.9112C31.8774 43.858 31.9709 43.8062 32.0544 43.7745C32.1364 43.7443 32.2156 43.7356 32.2558 43.7716C32.3048 43.8177 32.3364 43.9429 32.348 44.0738C32.3595 44.2048 32.3523 44.3502 32.3278 44.4653C32.3264 44.471 32.3249 44.4754 32.3235 44.4811Z" fill="#F04D1C"/>
<path d="M34.6694 44.2078C34.6349 44.2884 34.6162 44.4352 34.596 44.5431C34.5788 44.6367 34.5586 44.7489 34.5327 44.8712C34.5083 44.9921 34.4809 45.1216 34.4493 45.2497C34.4176 45.3778 34.3845 45.5045 34.3514 45.6239C34.3183 45.7419 34.2838 45.8542 34.2535 45.9492C34.2233 46.0456 34.183 46.1578 34.1398 46.2586C34.0952 46.3593 34.0477 46.4514 34.0046 46.5147C33.9614 46.5795 33.9211 46.6184 33.8923 46.6097C33.8693 46.6025 33.8722 46.5421 33.8894 46.4586C33.9067 46.3766 33.9384 46.2686 33.9686 46.1665C33.993 46.0859 34.019 45.9952 34.0463 45.8959C34.0736 45.7952 34.101 45.6872 34.1283 45.5707C34.1571 45.4555 34.183 45.3346 34.2089 45.2094C34.2348 45.0842 34.2578 44.9576 34.278 44.8309C34.2996 44.7057 34.3169 44.5805 34.3327 44.4625C34.3471 44.3445 34.3586 44.2337 34.3672 44.1344C34.3802 44.0034 34.3874 43.8797 34.3859 43.7775C34.3859 43.6753 34.3759 43.5933 34.3528 43.5458C34.3312 43.4983 34.2938 43.4897 34.2406 43.5184C34.1859 43.5501 34.1125 43.589 34.0391 43.6321C33.9657 43.6767 33.888 43.7257 33.8088 43.7746C33.7297 43.8235 33.6505 43.8739 33.5728 43.9171C33.4922 43.9646 33.4131 44.0135 33.3397 44.0567C33.2677 44.0984 33.2015 44.133 33.1468 44.1445C33.0864 44.1589 33.0331 44.1358 32.9957 44.084C32.9583 44.0322 32.9324 43.9545 32.9223 43.8595C32.9122 43.766 32.9151 43.6537 32.9367 43.54C32.9569 43.4335 32.9943 43.3529 33.0375 43.2925C33.0792 43.232 33.1281 43.1903 33.1742 43.1601C33.2404 43.1184 33.3224 43.0694 33.4073 43.0191C33.4937 42.9687 33.5829 42.9154 33.6721 42.8636C33.7599 42.8104 33.8448 42.76 33.9225 42.7125C33.9988 42.665 34.0679 42.6219 34.1254 42.5859C34.1801 42.5499 34.2391 42.5125 34.2794 42.4319C34.3212 42.3513 34.3413 42.2232 34.3169 42.0232C34.3053 41.9282 34.2924 41.8289 34.2766 41.7296C34.2607 41.6317 34.242 41.5324 34.2219 41.4346C34.2003 41.3353 34.1787 41.2374 34.1542 41.1424C34.1312 41.0474 34.1053 40.9524 34.0794 40.8603C34.0535 40.7697 34.0261 40.679 34.0017 40.5941C33.97 40.4876 33.9297 40.3638 33.8837 40.2444C33.8376 40.1264 33.7887 40.0069 33.747 39.9004C33.7067 39.7925 33.6721 39.6946 33.6548 39.6112C33.6376 39.5277 33.6361 39.4543 33.662 39.4039C33.7081 39.3133 33.7887 39.3233 33.865 39.3895C33.9412 39.4572 34.0175 39.5867 34.0679 39.7105C34.0995 39.7867 34.1355 39.8716 34.1701 39.9609C34.2046 40.0515 34.2391 40.1465 34.2722 40.2458C34.3053 40.3451 34.337 40.4473 34.3672 40.548C34.3974 40.6488 34.4262 40.7495 34.4521 40.8445C34.478 40.9395 34.5025 41.0287 34.5227 41.1093C34.5601 41.2446 34.586 41.2575 34.6047 41.2144C34.6248 41.1726 34.6363 41.0748 34.6464 40.9999C34.6594 40.8906 34.6723 40.7639 34.681 40.633C34.6896 40.502 34.6939 40.3681 34.6997 40.2401C34.704 40.112 34.7083 39.9911 34.7141 39.8846C34.7198 39.7781 34.7256 39.6817 34.7414 39.6169C34.7616 39.5378 34.8076 39.5147 34.8508 39.5421C34.894 39.5694 34.9414 39.6428 34.9803 39.7421C35.0177 39.8429 35.0465 39.9709 35.0523 40.1048C35.0566 40.1998 35.058 40.3034 35.0566 40.4128C35.0551 40.5207 35.0523 40.6358 35.0451 40.7553C35.0393 40.8747 35.0307 40.9985 35.0192 41.1251C35.0076 41.2503 34.9947 41.3813 34.9803 41.5108C34.9645 41.6404 34.9472 41.7713 34.9299 41.9023C34.9112 42.0318 34.8925 42.1613 34.8724 42.2851C34.8522 42.4146 34.8421 42.5283 34.845 42.629C34.8465 42.7298 34.8594 42.8176 34.8752 42.901C34.8911 42.9845 34.9127 43.0608 34.9328 43.1342C34.9587 43.2306 34.9861 43.3457 35.0105 43.4666C35.0364 43.5875 35.0595 43.7156 35.0753 43.8408C35.0926 43.966 35.1026 44.0898 35.1098 44.202C35.1156 44.3157 35.117 44.4193 35.1141 44.5043C35.1127 44.5661 35.1069 44.641 35.094 44.7216C35.0796 44.8022 35.0595 44.8914 35.0278 44.9849C34.9961 45.0842 34.9587 45.1691 34.9271 45.2296C34.894 45.29 34.8637 45.326 34.8479 45.3274C34.8191 45.3303 34.8119 45.2526 34.8119 45.1677C34.8105 45.09 34.8105 44.9907 34.8047 44.8871C34.799 44.7834 34.7903 44.6712 34.7774 44.569C34.7644 44.4668 34.7515 44.369 34.7342 44.3028C34.7227 44.2553 34.7069 44.1617 34.6723 44.2049C34.6709 44.2063 34.6709 44.2063 34.6694 44.2078Z" fill="#F04D1C"/>
<path d="M33.9053 41.6723C33.8765 41.809 33.8233 41.8637 33.7585 41.8637C33.6923 41.8637 33.6131 41.809 33.5282 41.7313C33.4433 41.655 33.3527 41.5542 33.2677 41.4607C33.1843 41.3657 33.1051 41.2765 33.0461 41.2146C32.9871 41.1527 32.9483 41.0577 32.9281 40.9613C32.9065 40.8649 32.9036 40.7642 32.9195 40.6821C32.9339 40.5987 32.967 40.531 33.013 40.5051C33.0619 40.4806 33.1224 40.4965 33.1814 40.5281C33.2404 40.5598 33.3008 40.6087 33.3541 40.6505C33.4145 40.698 33.4822 40.7541 33.5484 40.816C33.6131 40.8778 33.6765 40.9455 33.7326 41.0246C33.7873 41.1038 33.8348 41.1945 33.8664 41.2995C33.8981 41.4031 33.9139 41.5226 33.9082 41.6579C33.9067 41.6636 33.9067 41.6665 33.9053 41.6723Z" fill="#F04D1C"/>
<path d="M34.0319 44.6289C34.0463 44.7368 34.0377 44.8534 34.0161 44.9729C33.9931 45.0923 33.9557 45.2161 33.9096 45.3398C33.8636 45.4622 33.8103 45.5845 33.7556 45.7011C33.6995 45.8176 33.6419 45.9313 33.5901 46.0321C33.5441 46.1184 33.4923 46.2192 33.4405 46.3026C33.3901 46.3875 33.3383 46.4595 33.2922 46.4912C33.2303 46.5343 33.1872 46.4753 33.1814 46.3631C33.1756 46.2508 33.203 46.081 33.2778 45.9155C33.3167 45.8277 33.3656 45.7126 33.4189 45.5845C33.4736 45.4579 33.5326 45.3183 33.5901 45.183C33.6491 45.0477 33.7081 44.9182 33.7628 44.8117C33.8175 44.7052 33.8693 44.6231 33.9139 44.5857C33.96 44.5469 34.0003 44.5526 34.0276 44.6188C34.0291 44.6231 34.0305 44.6246 34.0319 44.6289Z" fill="#F04D1C"/>
<path d="M35.6553 42.4313C35.6323 42.5753 35.5905 42.6199 35.5315 42.653C35.4912 42.676 35.4322 42.7264 35.3775 42.7609C35.3228 42.7969 35.2667 42.8156 35.2207 42.7739C35.1948 42.7523 35.1775 42.6875 35.1689 42.6026C35.1588 42.5162 35.1588 42.4083 35.1645 42.2975C35.1703 42.1838 35.1876 42.0859 35.2149 42.0068C35.2408 41.9276 35.2797 41.8586 35.3171 41.8312C35.3545 41.8024 35.4308 41.7391 35.4912 41.6974C35.5502 41.6556 35.6092 41.6412 35.6366 41.7089C35.6596 41.7708 35.6726 41.896 35.6754 42.0284C35.6797 42.1608 35.6711 42.3061 35.6567 42.4169C35.6567 42.4227 35.6553 42.4256 35.6553 42.4313Z" fill="#F04D1C"/>
<path d="M34.4896 35.2333C34.3155 34.8059 34.1183 34.39 33.9039 33.9827C33.8751 34.3756 33.8463 34.7685 33.8233 35.1038C33.7888 35.4995 33.7931 35.8421 33.6794 36.1457C33.5297 36.4537 33.0879 36.1428 32.8648 36.0507C32.2834 35.7528 31.3624 35.2606 30.7939 34.9728C30.4787 34.8217 30.0556 34.5756 29.893 35.0419C29.6253 35.8349 29.4094 37.0063 29.1936 37.8151C28.9806 38.6829 28.8611 38.7304 28.1272 38.1677C27.6508 37.8079 26.96 37.274 26.4707 36.9027C26.1901 36.707 25.9872 36.4983 25.7036 36.4767C25.4302 36.5156 25.3424 36.8509 25.2244 37.074C24.9596 37.6842 24.5351 38.7218 24.2645 39.3492C24.1566 39.5608 24.0745 39.8645 23.8486 39.9523C23.601 39.9681 23.4226 39.7004 23.247 39.5407C22.7174 38.9851 21.9705 38.1361 21.4452 37.6108C21.2984 37.4798 21.1286 37.3042 20.9286 37.3819C20.6609 37.5302 20.5371 37.8166 20.3241 38.1217C19.9859 38.6541 19.5038 39.4241 19.1757 39.9321C18.9627 40.2573 18.8116 40.4545 18.6648 40.456L18.659 40.4574C18.4187 40.42 18.2863 40.1336 18.1409 39.9479C17.7466 39.3636 17.1695 38.4685 16.7507 37.854C16.2139 37.0164 15.9937 37.4294 15.4281 38.0051C14.9978 38.4671 14.3833 39.1391 13.9689 39.5795C13.7026 39.8573 13.5184 40.0199 13.373 39.9911C13.2147 39.9983 13.0075 39.5479 12.8794 39.2557C12.6175 38.6642 12.2376 37.7791 11.9684 37.1805C11.7799 36.7761 11.6058 36.3011 11.1381 36.6134C10.4631 37.0509 9.64566 37.7345 8.97214 38.2224C8.09426 38.9146 8.0957 38.5289 7.84385 37.6151C7.68267 36.9891 7.46392 36.0838 7.30705 35.4923C7.23797 35.1959 7.09406 34.7972 6.90265 34.7929C6.72851 34.7598 6.46371 34.885 6.08809 35.075C5.52827 35.3571 4.70939 35.7859 4.14957 36.0666C3.41416 36.4436 3.28464 36.3745 3.21844 35.5585C3.18102 35.1326 3.13209 34.5281 3.0846 33.9424C3.03423 34.046 2.98386 34.1511 2.93493 34.2561C2.74064 34.6778 2.56651 35.111 2.41108 35.5485C2.29739 35.8334 2.21679 36.2335 2.4154 36.4681L2.42115 36.4753C6.43637 39.5723 13.0478 41.8937 19.0044 41.6346C25.7137 41.5296 31.5782 38.4196 34.1831 36.4436C34.7055 36.1284 34.7328 35.796 34.4896 35.2333Z" fill="#F04D1C"/>
<path d="M3.876 35.1786C4.02855 35.4233 4.32933 35.2448 4.53801 35.1614C5.16404 34.8577 6.06206 34.3799 6.66219 34.082C6.88238 33.9885 7.16013 33.8114 7.38752 33.9352C7.60339 34.1079 7.62354 34.3684 7.72284 34.6821C7.88402 35.2966 8.10709 36.2148 8.26395 36.8106C8.48702 37.6885 8.63669 37.6899 9.30733 37.1906C9.7693 36.8466 10.4385 36.3328 10.912 35.9774C11.1969 35.7888 11.5769 35.4003 11.8575 35.6348C12 35.7629 12.0834 35.9644 12.1741 36.1457C12.436 36.7214 12.8448 37.6827 13.1139 38.28C13.2247 38.493 13.3139 38.7938 13.5413 38.883C13.6895 38.9218 13.8737 38.765 14.14 38.4901C14.3501 38.2699 14.6135 37.9821 14.884 37.6899C15.12 37.4352 15.3575 37.1776 15.559 36.9617C15.8094 36.7243 16.1145 36.2724 16.4311 36.4321C16.6355 36.5573 16.7722 36.7948 16.9147 36.9934C17.3421 37.6194 17.8803 38.4872 18.289 39.0456C18.4502 39.2629 18.6531 39.4558 18.8762 39.1967C19.39 38.5549 19.8836 37.6367 20.3456 36.956C20.5125 36.7372 20.7054 36.3012 21.0277 36.3846C21.2508 36.4695 21.4264 36.6854 21.5991 36.8581C22.0466 37.3345 22.7072 38.0656 23.1145 38.4901C23.2498 38.6211 23.3879 38.7765 23.5577 38.8312C23.8542 38.8974 23.9924 38.3793 24.1061 38.1677C24.3464 37.605 24.6932 36.7602 24.9336 36.2019C25.1379 35.76 25.2919 35.265 25.846 35.6651C26.4821 36.1011 27.3096 36.7847 27.8982 37.2107C28.5804 37.7389 28.6595 37.4093 28.8365 36.7243C28.9833 36.1313 29.1877 35.2477 29.3345 34.6548C29.4223 34.39 29.4611 33.928 29.772 33.8647C30.0109 33.8489 30.2541 33.9985 30.4743 34.1021C31.0341 34.3871 31.8731 34.8375 32.3955 35.0995C33.0475 35.4348 33.1928 35.3096 33.2547 34.5814C33.2964 34.3698 33.3051 33.679 33.3698 33.0487C32.9438 32.3622 32.4646 31.7088 31.9436 31.0929C31.5925 30.664 31.4198 30.641 31.1694 31.1505C30.0785 33.1667 27.5773 33.7654 25.4732 34.1223C20.5413 35.0088 15.3445 35.0203 10.7004 33.6042C9.14903 33.1077 7.46667 32.5939 6.41609 31.2426C6.18007 30.9734 6.00162 30.4021 5.83324 30.2179C5.64039 30.0366 5.44467 30.3345 5.31083 30.4856C4.68912 31.2728 4.10914 32.096 3.604 32.9681C3.6515 33.3998 3.67164 33.8877 3.71194 34.2605C3.7436 34.6058 3.75224 34.9196 3.876 35.1786Z" fill="#F04D1C"/>
<path d="M94.6314 41.2187C94.5278 41.0633 94.7149 40.6819 94.8128 40.0458C95.0819 38.7707 95.4143 37.0927 95.6906 35.8349C95.7007 35.8061 95.7094 35.8061 95.7194 35.8363C95.7741 36.2263 96.7067 40.1983 96.7556 40.9928C96.4419 41.1698 95.9684 41.0978 95.4489 41.1813C95.0358 41.2158 94.7437 41.2561 94.6516 41.2273L94.6314 41.2187ZM94.014 25.8717C93.2268 27.4044 89.426 48.0489 88.7986 50.6106C88.7885 50.7286 89.095 50.8178 89.2634 50.8538C89.9441 51.0092 91.0595 51.2337 91.7503 51.3575C92.2036 51.4496 92.5332 51.3676 92.6123 50.8639C92.9289 49.6104 93.401 46.5795 93.7924 45.421C93.9378 45.1519 94.2501 45.1044 94.535 45.0612C95.2359 44.9849 96.3469 44.8569 97.0449 44.8453C97.6882 44.7648 97.7026 45.5678 97.8638 46.2701C98.1645 47.7107 98.6222 50.0018 98.8208 50.8898C98.8913 51.3747 99.2468 51.4525 99.6785 51.356C100.27 51.2553 101.352 51.0222 101.939 50.9013C102.197 50.8221 102.728 50.8048 102.62 50.4753C102.101 47.9669 98.8985 32.3564 97.6594 26.3466C97.5601 25.9263 97.6795 25.8443 96.7988 25.8386C95.9598 25.8386 94.8286 25.8069 94.0414 25.8659L94.014 25.8717Z" fill="#FFFFFF"/>
<path d="M109.572 23.2038C109.385 23.2643 109.39 23.4082 109.384 23.578C109.38 25.5885 109.388 36.8282 109.38 38.7379C109.395 39.0416 109.139 39.1265 108.883 39.1654C108.401 39.2431 107.401 39.3366 106.919 39.3496C106.727 39.3453 106.473 39.3582 106.434 39.1308C106.389 37.4816 106.432 36.0208 106.418 33.5412C106.403 29.4123 106.448 24.8358 106.401 23.4053C106.324 23.1563 106.15 23.1909 105.828 23.1549C105.259 23.1333 103.979 23.1419 103.335 23.1477C102.811 23.1865 102.662 23.1203 102.633 23.4298C102.633 25.8274 102.629 43.785 102.631 48.0406C102.565 48.4781 102.954 48.4263 103.276 48.4435C103.825 48.4493 104.943 48.4594 105.589 48.4363C106.137 48.4335 106.422 48.2248 106.409 47.652C106.438 46.7597 106.395 44.8068 106.434 43.9577C106.432 43.4526 106.76 43.2151 107.261 43.1604C107.723 43.0986 108.456 43.0064 108.883 43.0554C109.377 43.1057 109.385 43.4842 109.382 44.2772C109.418 45.5091 109.306 46.99 109.441 48.0363C109.525 48.3845 109.901 48.4205 110.211 48.4378C110.812 48.4594 111.835 48.4479 112.405 48.4464C112.688 48.4219 113.219 48.5025 113.169 48.1399C113.165 45.4847 113.175 30.1491 113.17 23.6672C113.16 23.2527 113.271 23.1592 112.467 23.1477C111.606 23.1534 110.4 23.0916 109.6 23.1966L109.572 23.2038Z" fill="#FFFFFF"/>
<path d="M92.3864 22.9961C91.923 22.7069 90.8854 22.3974 90.2608 22.1557C89.7441 22.0031 89.4102 21.7628 89.0159 21.9297C88.8864 22.0218 88.8173 22.183 88.7482 22.3456C88.2848 23.5488 86.9939 27.102 86.6816 27.8734C86.4614 28.3814 86.4355 27.6935 86.1563 26.6962C85.7303 25.0239 85.2036 22.704 84.8726 21.5555C84.6409 20.8791 83.5544 21.4706 82.9514 21.5383C82.4074 21.675 81.6374 21.816 81.2532 22.0146C81.0949 22.1168 81.1107 22.2435 81.1467 22.4104C81.5957 24.1331 83.5141 31.3734 84.3891 34.6892C84.5085 35.1353 84.5531 35.2821 84.5474 35.6923C84.5661 37.3214 84.5143 45.0654 84.5675 46.9493C84.6668 47.4328 85.6454 47.1997 86.1635 47.2601C86.9925 47.2213 87.689 47.3565 88.2704 47.1522C88.3942 47.0673 88.3928 46.9248 88.4 46.7751C88.4043 45.6353 88.4 41.8273 88.4014 38.7461C88.4518 36.5039 88.2949 35.462 88.4733 34.1466C89.0677 32.5046 91.7546 25.306 92.4224 23.4898C92.4814 23.3113 92.5533 23.153 92.4094 23.0148L92.3864 22.9961Z" fill="#FFFFFF"/>
<path d="M77.2091 37.7052C75.9988 34.9435 72.8428 26.9102 71.8166 24.5025C71.6943 24.2103 71.3705 24.183 71.0798 24.1715C70.4998 24.1542 69.2578 24.1758 68.6131 24.1887C68.4087 24.1902 67.9813 24.2017 67.9209 24.3557C67.8676 26.9202 68.1555 46.7329 68.1569 49.2068C68.1598 49.4371 68.2375 49.4975 68.8218 49.5076C69.3298 49.4112 72.0037 49.7782 71.9361 49.0975C71.9404 47.3172 71.7922 36.0185 71.8023 35.0154C72.3923 35.8185 74.328 41.0555 75.2202 42.9696C76.147 45.1643 76.9357 47.0985 77.2178 47.7072C77.3573 48.0008 77.7042 48.0066 78.0035 48.0195C78.6382 48.0325 79.9363 48.0167 80.5263 47.9951C80.8473 47.9677 81.184 47.9663 81.1293 47.6209C81.0876 45.1096 80.9581 28.3781 80.8847 25.7761C80.8314 25.566 80.4904 25.5876 80.2903 25.5732C79.5333 25.6336 77.9373 25.4206 77.2235 25.7531C76.9184 28.0629 77.3588 36.2272 77.2134 37.7023L77.2091 37.7052Z" fill="#FFFFFF"/>
<path d="M53.289 29.3025C53.4948 28.6779 52.7465 27.7367 52.4644 27.1236C52.201 26.7092 52.1046 26.3393 51.7131 26.227C51.5548 26.2127 51.3778 26.2817 51.2181 26.3623C50.1805 26.8977 47.4058 28.416 46.4847 28.8866C46.3307 28.9413 46.2084 29.0348 46.076 28.9844C45.9048 28.9154 45.9422 28.4174 45.935 27.6101C45.9321 26.4084 45.9436 24.6857 45.9292 23.8668C45.912 23.6438 45.9148 23.4121 45.745 23.2624C45.5925 23.1401 45.368 23.1214 45.165 23.107C44.3965 23.094 43.2423 23.071 42.4782 23.1127C42.1774 23.1458 42.1284 23.1847 42.1212 23.4006C42.1198 25.696 42.1212 44.7258 42.1212 47.879C42.1342 48.2258 42.0421 48.3539 42.5199 48.3856C42.8235 48.4071 43.4208 48.4014 44.0713 48.4028C44.7578 48.3381 45.9191 48.6216 45.9263 47.9509C46.0271 46.3477 45.7882 39.9824 46.0098 37.9345C46.951 39.7723 47.8073 41.7468 49.3357 44.1516C63.0939 67.0887 93.6657 70.6059 116.823 55.3841C117.849 54.7279 117.766 54.0515 117.016 53.3477C116.256 52.6166 115.715 51.7532 114.811 52.2511C103.355 59.8354 78.1186 64.4781 61.4418 51.3315C55.1772 46.9363 49.4508 37.9402 47.9757 33.0788C47.8678 32.4398 48.606 32.0901 49.0867 31.8066C50.0567 31.2828 51.0396 30.7575 52.0154 30.2336C52.5723 29.9256 53.112 29.6896 53.2717 29.3442L53.289 29.3025Z" fill="#FFFFFF"/>
<path d="M58.8859 36.1599C58.7823 36.0045 58.9693 35.6216 59.0658 34.9855C59.3306 33.7105 59.6587 32.0295 59.9307 30.7717C59.9408 30.7429 59.9494 30.7429 59.9595 30.7732C60.0156 31.1632 60.9597 35.1338 61.01 35.9282C60.6963 36.1052 60.2228 36.0347 59.7047 36.1196C59.2917 36.1556 58.9981 36.1959 58.9075 36.1685L58.8859 36.1599ZM61.567 20.8013C60.8057 20.7265 59.4889 20.7941 58.683 20.7841C58.3548 20.8114 58.0008 20.7783 57.9835 21.1064C57.5475 23.3616 54.3742 38.7978 53.9165 41.3552C54.0906 42.0877 54.9167 42.6332 55.6061 43.4348C56.0651 43.8392 56.779 44.8336 57.0812 44.3947C57.6151 43.2261 57.5705 41.4372 58.1059 40.3277C58.2929 40.0729 58.6268 40.0341 58.9262 39.9895C59.8069 39.9405 60.8892 39.6728 61.6433 39.847C61.9484 39.9175 62.0434 40.863 62.1858 41.4588C62.5528 43.0807 62.891 45.1171 63.1932 46.0814C63.3271 46.3879 63.6811 46.3289 63.9661 46.2886C64.5575 46.185 65.6412 45.9489 66.2298 45.8252C66.4759 45.7503 67.0026 45.7273 66.9134 45.4193C66.5839 43.8248 64.1316 32.0972 62.7399 25.4354C62.2563 23.1299 61.911 21.4331 61.803 20.9697C61.7685 20.869 61.721 20.833 61.5943 20.8071L61.567 20.8013Z" fill="#FFFFFF"/>
<path d="M63.3272 14.0283C63.3574 14.0312 63.3948 14.2053 63.4538 14.5018C63.5747 15.1235 63.733 15.9467 63.8597 16.6015C64.0065 17.1757 63.9647 17.9874 64.7045 18.0579C65.6241 18.2047 66.6847 18.2867 67.5957 18.4004C67.9512 18.4422 68.1642 18.4695 68.1627 18.5026C68.1656 18.5372 67.9569 18.5803 67.6058 18.6494C66.9855 18.7689 66.2012 18.92 65.5579 19.0437C64.9736 19.1905 64.2022 19.1474 64.1346 19.9058C63.9892 20.8398 63.8985 21.9436 63.7848 22.8618C63.7489 23.1611 63.7244 23.3353 63.6927 23.3353C63.6625 23.3381 63.6237 23.1669 63.5647 22.8704C63.4438 22.2502 63.2855 21.4255 63.1588 20.7722C63.012 20.1965 63.0538 19.3863 62.314 19.3157C61.3944 19.1689 60.3338 19.0855 59.4228 18.9718C59.0673 18.9315 58.8558 18.9041 58.8558 18.8696C58.8515 18.8365 59.0616 18.7919 59.4127 18.7242C60.3136 18.5386 61.3628 18.3731 62.268 18.1529C63.0005 18.0248 62.894 17.2203 62.9948 16.6346C63.1041 15.892 63.1631 14.6601 63.3243 14.0283H63.3272Z" fill="#EE9514"/>
</g>
</g>
<defs>
<clipPath id="clip0_119_70753">
<rect width="127" height="84" fill="white"/>
</clipPath>
<clipPath id="clip1_119_70753">
<rect width="159" height="84" fill="white"/>
</clipPath>
</defs>
</svg>
