<svg width="358" height="40" viewBox="0 0 358 40" fill="none" xmlns="http://www.w3.org/2000/svg">
<rect width="40" height="40" rx="20" fill="white" fill-opacity="0.1"/>
<path d="M20 30C18.6167 30 17.3167 29.7375 16.1 29.2125C14.8833 28.6875 13.825 27.975 12.925 27.075C12.025 26.175 11.3125 25.1167 10.7875 23.9C10.2625 22.6833 10 21.3833 10 20C10 18.6167 10.2625 17.3167 10.7875 16.1C11.3125 14.8833 12.025 13.825 12.925 12.925C13.825 12.025 14.8833 11.3125 16.1 10.7875C17.3167 10.2625 18.6167 10 20 10C21.3833 10 22.6833 10.2625 23.9 10.7875C25.1167 11.3125 26.175 12.025 27.075 12.925C27.975 13.825 28.6875 14.8833 29.2125 16.1C29.7375 17.3167 30 18.6167 30 20C30 21.3833 29.7375 22.6833 29.2125 23.9C28.6875 25.1167 27.975 26.175 27.075 27.075C26.175 27.975 25.1167 28.6875 23.9 29.2125C22.6833 29.7375 21.3833 30 20 30ZM19 27.95V26C18.45 26 17.9792 25.8042 17.5875 25.4125C17.1958 25.0208 17 24.55 17 24V23L12.2 18.2C12.15 18.5 12.1042 18.8 12.0625 19.1C12.0208 19.4 12 19.7 12 20C12 22.0167 12.6625 23.7833 13.9875 25.3C15.3125 26.8167 16.9833 27.7 19 27.95ZM25.9 25.4C26.5833 24.65 27.1042 23.8125 27.4625 22.8875C27.8208 21.9625 28 21 28 20C28 18.3667 27.5458 16.875 26.6375 15.525C25.7292 14.175 24.5167 13.2 23 12.6V13C23 13.55 22.8042 14.0208 22.4125 14.4125C22.0208 14.8042 21.55 15 21 15H19V17C19 17.2833 18.9042 17.5208 18.7125 17.7125C18.5208 17.9042 18.2833 18 18 18H16V20H22C22.2833 20 22.5208 20.0958 22.7125 20.2875C22.9042 20.4792 23 20.7167 23 21V24H24C24.4333 24 24.825 24.1292 25.175 24.3875C25.525 24.6458 25.7667 24.9833 25.9 25.4Z" fill="white" fill-opacity="0.8"/>
<rect x="56" width="40" height="40" rx="20" fill="white" fill-opacity="0.1"/>
<path d="M82 30C81.1667 30 80.4583 29.7083 79.875 29.125C79.2917 28.5417 79 27.8333 79 27C79 26.9 79.025 26.6667 79.075 26.3L72.05 22.2C71.7833 22.45 71.475 22.6458 71.125 22.7875C70.775 22.9292 70.4 23 70 23C69.1667 23 68.4583 22.7083 67.875 22.125C67.2917 21.5417 67 20.8333 67 20C67 19.1667 67.2917 18.4583 67.875 17.875C68.4583 17.2917 69.1667 17 70 17C70.4 17 70.775 17.0708 71.125 17.2125C71.475 17.3542 71.7833 17.55 72.05 17.8L79.075 13.7C79.0417 13.5833 79.0208 13.4708 79.0125 13.3625C79.0042 13.2542 79 13.1333 79 13C79 12.1667 79.2917 11.4583 79.875 10.875C80.4583 10.2917 81.1667 10 82 10C82.8333 10 83.5417 10.2917 84.125 10.875C84.7083 11.4583 85 12.1667 85 13C85 13.8333 84.7083 14.5417 84.125 15.125C83.5417 15.7083 82.8333 16 82 16C81.6 16 81.225 15.9292 80.875 15.7875C80.525 15.6458 80.2167 15.45 79.95 15.2L72.925 19.3C72.9583 19.4167 72.9792 19.5292 72.9875 19.6375C72.9958 19.7458 73 19.8667 73 20C73 20.1333 72.9958 20.2542 72.9875 20.3625C72.9792 20.4708 72.9583 20.5833 72.925 20.7L79.95 24.8C80.2167 24.55 80.525 24.3542 80.875 24.2125C81.225 24.0708 81.6 24 82 24C82.8333 24 83.5417 24.2917 84.125 24.875C84.7083 25.4583 85 26.1667 85 27C85 27.8333 84.7083 28.5417 84.125 29.125C83.5417 29.7083 82.8333 30 82 30ZM82 28C82.2833 28 82.5208 27.9042 82.7125 27.7125C82.9042 27.5208 83 27.2833 83 27C83 26.7167 82.9042 26.4792 82.7125 26.2875C82.5208 26.0958 82.2833 26 82 26C81.7167 26 81.4792 26.0958 81.2875 26.2875C81.0958 26.4792 81 26.7167 81 27C81 27.2833 81.0958 27.5208 81.2875 27.7125C81.4792 27.9042 81.7167 28 82 28ZM70 21C70.2833 21 70.5208 20.9042 70.7125 20.7125C70.9042 20.5208 71 20.2833 71 20C71 19.7167 70.9042 19.4792 70.7125 19.2875C70.5208 19.0958 70.2833 19 70 19C69.7167 19 69.4792 19.0958 69.2875 19.2875C69.0958 19.4792 69 19.7167 69 20C69 20.2833 69.0958 20.5208 69.2875 20.7125C69.4792 20.9042 69.7167 21 70 21ZM82 14C82.2833 14 82.5208 13.9042 82.7125 13.7125C82.9042 13.5208 83 13.2833 83 13C83 12.7167 82.9042 12.4792 82.7125 12.2875C82.5208 12.0958 82.2833 12 82 12C81.7167 12 81.4792 12.0958 81.2875 12.2875C81.0958 12.4792 81 12.7167 81 13C81 13.2833 81.0958 13.5208 81.2875 13.7125C81.4792 13.9042 81.7167 14 82 14Z" fill="white" fill-opacity="0.8"/>
<rect x="112" width="40" height="40" rx="20" fill="white" fill-opacity="0.1"/>
<path d="M129.5 24.5L136.5 20L129.5 15.5V24.5ZM132 30C130.617 30 129.317 29.7375 128.1 29.2125C126.883 28.6875 125.825 27.975 124.925 27.075C124.025 26.175 123.312 25.1167 122.788 23.9C122.263 22.6833 122 21.3833 122 20C122 18.6167 122.263 17.3167 122.788 16.1C123.312 14.8833 124.025 13.825 124.925 12.925C125.825 12.025 126.883 11.3125 128.1 10.7875C129.317 10.2625 130.617 10 132 10C133.383 10 134.683 10.2625 135.9 10.7875C137.117 11.3125 138.175 12.025 139.075 12.925C139.975 13.825 140.688 14.8833 141.212 16.1C141.737 17.3167 142 18.6167 142 20C142 21.3833 141.737 22.6833 141.212 23.9C140.688 25.1167 139.975 26.175 139.075 27.075C138.175 27.975 137.117 28.6875 135.9 29.2125C134.683 29.7375 133.383 30 132 30ZM132 28C134.233 28 136.125 27.225 137.675 25.675C139.225 24.125 140 22.2333 140 20C140 17.7667 139.225 15.875 137.675 14.325C136.125 12.775 134.233 12 132 12C129.767 12 127.875 12.775 126.325 14.325C124.775 15.875 124 17.7667 124 20C124 22.2333 124.775 24.125 126.325 25.675C127.875 27.225 129.767 28 132 28Z" fill="white" fill-opacity="0.8"/>
</svg>
