<svg width="358" height="68" viewBox="0 0 358 68" fill="none" xmlns="http://www.w3.org/2000/svg">
<g opacity="0.6">
<path d="M35 21.94C35 15.3126 40.3726 9.94 47 9.94H71C77.6274 9.94 83 15.3126 83 21.94V45.94C83 52.5674 77.6274 57.94 71 57.94H47C40.3726 57.94 35 52.5674 35 45.94V21.94Z" fill="#FF2D55" fill-opacity="0.2"/>
<path d="M55.85 39.265L59 37.365L62.15 39.29L61.325 35.69L64.1 33.29L60.45 32.965L59 29.565L57.55 32.94L53.9 33.265L56.675 35.69L55.85 39.265ZM52.825 43.44L54.45 36.415L49 31.69L56.2 31.065L59 24.44L61.8 31.065L69 31.69L63.55 36.415L65.175 43.44L59 39.715L52.825 43.44Z" fill="#FF2D55"/>
<path d="M115 33.94C115 20.6852 125.745 9.94 139 9.94C152.255 9.94 163 20.6852 163 33.94C163 47.1948 152.255 57.94 139 57.94C125.745 57.94 115 47.1948 115 33.94Z" fill="#34C759" fill-opacity="0.2"/>
<path d="M137.95 37.49L143.6 31.84L142.175 30.415L137.95 34.64L135.85 32.54L134.425 33.965L137.95 37.49ZM139 43.94C136.683 43.3567 134.771 42.0275 133.263 39.9525C131.754 37.8775 131 35.5733 131 33.04V26.94L139 23.94L147 26.94V33.04C147 35.5733 146.246 37.8775 144.738 39.9525C143.229 42.0275 141.317 43.3567 139 43.94ZM139 41.84C140.733 41.29 142.167 40.19 143.3 38.54C144.433 36.89 145 35.0567 145 33.04V28.315L139 26.065L133 28.315V33.04C133 35.0567 133.567 36.89 134.7 38.54C135.833 40.19 137.267 41.29 139 41.84Z" fill="#34C759"/>
<rect width="48" height="48" transform="translate(219) rotate(45)" fill="#FF8D28" fill-opacity="0.2"/>
<path d="M219 43.1161L217.55 41.8161C215.867 40.2995 214.475 38.9911 213.375 37.8911C212.275 36.7911 211.4 35.8036 210.75 34.9286C210.1 34.0536 209.646 33.2495 209.388 32.5161C209.129 31.7828 209 31.0328 209 30.2661C209 28.6994 209.525 27.3911 210.575 26.3411C211.625 25.2911 212.933 24.7661 214.5 24.7661C215.367 24.7661 216.192 24.9494 216.975 25.3161C217.758 25.6828 218.433 26.1994 219 26.8661C219.567 26.1994 220.242 25.6828 221.025 25.3161C221.808 24.9494 222.633 24.7661 223.5 24.7661C225.067 24.7661 226.375 25.2911 227.425 26.3411C228.475 27.3911 229 28.6994 229 30.2661C229 31.0328 228.871 31.7828 228.613 32.5161C228.354 33.2495 227.9 34.0536 227.25 34.9286C226.6 35.8036 225.725 36.7911 224.625 37.8911C223.525 38.9911 222.133 40.2995 220.45 41.8161L219 43.1161ZM219 40.4161C220.6 38.9828 221.917 37.7536 222.95 36.7286C223.983 35.7036 224.8 34.812 225.4 34.0536C226 33.2953 226.417 32.6203 226.65 32.0286C226.883 31.437 227 30.8495 227 30.2661C227 29.2661 226.667 28.4328 226 27.7661C225.333 27.0994 224.5 26.7661 223.5 26.7661C222.717 26.7661 221.992 26.9869 221.325 27.4286C220.658 27.8703 220.2 28.4328 219.95 29.1161H218.05C217.8 28.4328 217.342 27.8703 216.675 27.4286C216.008 26.9869 215.283 26.7661 214.5 26.7661C213.5 26.7661 212.667 27.0994 212 27.7661C211.333 28.4328 211 29.2661 211 30.2661C211 30.8495 211.117 31.437 211.35 32.0286C211.583 32.6203 212 33.2953 212.6 34.0536C213.2 34.812 214.017 35.7036 215.05 36.7286C216.083 37.7536 217.4 38.9828 219 40.4161Z" fill="#FF8D28"/>
<path d="M275 21.94C275 15.3126 280.373 9.94 287 9.94H311C317.627 9.94 323 15.3126 323 21.94V45.94C323 52.5674 317.627 57.94 311 57.94H287C280.373 57.94 275 52.5674 275 45.94V21.94Z" fill="#0088FF" fill-opacity="0.2"/>
<path d="M299 42.94L292 39.14V33.14L288 30.94L299 24.94L310 30.94V38.94H308V32.04L306 33.14V39.14L299 42.94ZM299 34.64L305.85 30.94L299 27.24L292.15 30.94L299 34.64ZM299 40.665L304 37.965V34.19L299 36.94L294 34.19V37.965L299 40.665Z" fill="#0088FF"/>
</g>
</svg>
