<svg width="60" height="60" viewBox="0 0 60 60" fill="none" xmlns="http://www.w3.org/2000/svg">
<g filter="url(#filter0_d_119_71054)">
<rect x="2" y="1" width="56" height="56" rx="24" fill="#34C759" shape-rendering="crispEdges"/>
<path d="M23.75 16.5H36.25V26.3125C36.25 26.7917 36.1458 27.2188 35.9375 27.5938C35.7292 27.9688 35.4375 28.2708 35.0625 28.5L30.625 31.125L31.5 34H36.25L32.375 36.75L33.875 41.5L30 38.5625L26.125 41.5L27.625 36.75L23.75 34H28.5L29.375 31.125L24.9375 28.5C24.5625 28.2708 24.2708 27.9688 24.0625 27.5938C23.8542 27.2188 23.75 26.7917 23.75 26.3125V16.5ZM26.25 19V26.3125L28.75 27.8125V19H26.25ZM33.75 19H31.25V27.8125L33.75 26.3125V19Z" fill="white"/>
</g>
<defs>
<filter id="filter0_d_119_71054" x="0" y="0" width="60" height="60" filterUnits="userSpaceOnUse" color-interpolation-filters="sRGB">
<feFlood flood-opacity="0" result="BackgroundImageFix"/>
<feColorMatrix in="SourceAlpha" type="matrix" values="0 0 0 0 0 0 0 0 0 0 0 0 0 0 0 0 0 0 127 0" result="hardAlpha"/>
<feOffset dy="1"/>
<feGaussianBlur stdDeviation="1"/>
<feComposite in2="hardAlpha" operator="out"/>
<feColorMatrix type="matrix" values="0 0 0 0 0 0 0 0 0 0 0 0 0 0 0 0 0 0 0.05 0"/>
<feBlend mode="normal" in2="BackgroundImageFix" result="effect1_dropShadow_119_71054"/>
<feBlend mode="normal" in="SourceGraphic" in2="effect1_dropShadow_119_71054" result="shape"/>
</filter>
</defs>
</svg>
