<svg width="60" height="60" viewBox="0 0 60 60" fill="none" xmlns="http://www.w3.org/2000/svg">
<g filter="url(#filter0_d_119_71041)">
<rect x="2" y="1" width="56" height="56" rx="24" fill="#FF2D55" shape-rendering="crispEdges"/>
<path d="M39.9375 34.5312L38 32.5938C38.9167 31.7396 39.6354 30.7292 40.1562 29.5625C40.6771 28.3958 40.9375 27.1562 40.9375 25.8438C40.9375 24.5312 40.6771 23.3021 40.1562 22.1562C39.6354 21.0104 38.9167 20.0104 38 19.1562L39.9375 17.1562C41.1042 18.2604 42.0312 19.5625 42.7188 21.0625C43.4062 22.5625 43.75 24.1562 43.75 25.8438C43.75 27.5312 43.4062 29.125 42.7188 30.625C42.0312 32.125 41.1042 33.4271 39.9375 34.5312ZM35.9375 30.5312L33.9375 28.5312C34.3125 28.1771 34.6146 27.776 34.8438 27.3281C35.0729 26.8802 35.1875 26.3854 35.1875 25.8438C35.1875 25.3021 35.0729 24.8073 34.8438 24.3594C34.6146 23.9115 34.3125 23.5104 33.9375 23.1562L35.9375 21.1562C36.6042 21.7604 37.125 22.4635 37.5 23.2656C37.875 24.0677 38.0625 24.9271 38.0625 25.8438C38.0625 26.7604 37.875 27.6198 37.5 28.4219C37.125 29.224 36.6042 29.9271 35.9375 30.5312ZM26.25 30.8438C24.875 30.8438 23.6979 30.3542 22.7188 29.375C21.7396 28.3958 21.25 27.2188 21.25 25.8438C21.25 24.4688 21.7396 23.2917 22.7188 22.3125C23.6979 21.3333 24.875 20.8438 26.25 20.8438C27.625 20.8438 28.8021 21.3333 29.7812 22.3125C30.7604 23.2917 31.25 24.4688 31.25 25.8438C31.25 27.2188 30.7604 28.3958 29.7812 29.375C28.8021 30.3542 27.625 30.8438 26.25 30.8438ZM16.25 40.8438V37.3438C16.25 36.6562 16.4271 36.0104 16.7812 35.4062C17.1354 34.8021 17.625 34.3438 18.25 34.0312C19.3125 33.4896 20.5104 33.0312 21.8438 32.6562C23.1771 32.2812 24.6458 32.0938 26.25 32.0938C27.8542 32.0938 29.3229 32.2812 30.6562 32.6562C31.9896 33.0312 33.1875 33.4896 34.25 34.0312C34.875 34.3438 35.3646 34.8021 35.7188 35.4062C36.0729 36.0104 36.25 36.6562 36.25 37.3438V40.8438H16.25ZM18.75 38.3438H33.75V37.3438C33.75 37.1146 33.6927 36.9062 33.5781 36.7188C33.4635 36.5312 33.3125 36.3854 33.125 36.2812C32.375 35.9062 31.4115 35.5312 30.2344 35.1562C29.0573 34.7812 27.7292 34.5938 26.25 34.5938C24.7708 34.5938 23.4427 34.7812 22.2656 35.1562C21.0885 35.5312 20.125 35.9062 19.375 36.2812C19.1875 36.3854 19.0365 36.5312 18.9219 36.7188C18.8073 36.9062 18.75 37.1146 18.75 37.3438V38.3438ZM26.25 28.3438C26.9375 28.3438 27.526 28.099 28.0156 27.6094C28.5052 27.1198 28.75 26.5312 28.75 25.8438C28.75 25.1562 28.5052 24.5677 28.0156 24.0781C27.526 23.5885 26.9375 23.3438 26.25 23.3438C25.5625 23.3438 24.974 23.5885 24.4844 24.0781C23.9948 24.5677 23.75 25.1562 23.75 25.8438C23.75 26.5312 23.9948 27.1198 24.4844 27.6094C24.974 28.099 25.5625 28.3438 26.25 28.3438Z" fill="white"/>
</g>
<defs>
<filter id="filter0_d_119_71041" x="0" y="0" width="60" height="60" filterUnits="userSpaceOnUse" color-interpolation-filters="sRGB">
<feFlood flood-opacity="0" result="BackgroundImageFix"/>
<feColorMatrix in="SourceAlpha" type="matrix" values="0 0 0 0 0 0 0 0 0 0 0 0 0 0 0 0 0 0 127 0" result="hardAlpha"/>
<feOffset dy="1"/>
<feGaussianBlur stdDeviation="1"/>
<feComposite in2="hardAlpha" operator="out"/>
<feColorMatrix type="matrix" values="0 0 0 0 0 0 0 0 0 0 0 0 0 0 0 0 0 0 0.05 0"/>
<feBlend mode="normal" in2="BackgroundImageFix" result="effect1_dropShadow_119_71041"/>
<feBlend mode="normal" in="SourceGraphic" in2="effect1_dropShadow_119_71041" result="shape"/>
</filter>
</defs>
</svg>
