<svg width="60" height="60" viewBox="0 0 60 60" fill="none" xmlns="http://www.w3.org/2000/svg">
<g filter="url(#filter0_d_119_71028)">
<rect x="2" y="1" width="56" height="56" rx="24" fill="#FF8D28" shape-rendering="crispEdges"/>
<path d="M30 41.1875C29 40.3958 27.9167 39.7812 26.75 39.3438C25.5833 38.9062 24.375 38.6875 23.125 38.6875C22.25 38.6875 21.3906 38.8021 20.5469 39.0312C19.7031 39.2604 18.8958 39.5833 18.125 40C17.6875 40.2292 17.2656 40.2188 16.8594 39.9688C16.4531 39.7188 16.25 39.3542 16.25 38.875V23.8125C16.25 23.5833 16.3073 23.3646 16.4219 23.1562C16.5365 22.9479 16.7083 22.7917 16.9375 22.6875C17.8958 22.1875 18.8958 21.8125 19.9375 21.5625C20.9792 21.3125 22.0417 21.1875 23.125 21.1875C24.3333 21.1875 25.5156 21.3438 26.6719 21.6562C27.8281 21.9688 28.9375 22.4375 30 23.0625V38.1875C31.0625 37.5208 32.1771 37.0208 33.3438 36.6875C34.5104 36.3542 35.6875 36.1875 36.875 36.1875C37.625 36.1875 38.3594 36.25 39.0781 36.375C39.7969 36.5 40.5208 36.6875 41.25 36.9375V21.9375C41.5625 22.0417 41.8698 22.151 42.1719 22.2656C42.474 22.3802 42.7708 22.5208 43.0625 22.6875C43.2917 22.7917 43.4635 22.9479 43.5781 23.1562C43.6927 23.3646 43.75 23.5833 43.75 23.8125V38.875C43.75 39.3542 43.5469 39.7188 43.1406 39.9688C42.7344 40.2188 42.3125 40.2292 41.875 40C41.1042 39.5833 40.2969 39.2604 39.4531 39.0312C38.6094 38.8021 37.75 38.6875 36.875 38.6875C35.625 38.6875 34.4167 38.9062 33.25 39.3438C32.0833 39.7812 31 40.3958 30 41.1875ZM32.5 34.9375V23.0625L38.75 16.8125V29.3125L32.5 34.9375ZM27.5 36.9688V24.5938C26.8125 24.3021 26.099 24.0781 25.3594 23.9219C24.6198 23.7656 23.875 23.6875 23.125 23.6875C22.3542 23.6875 21.6042 23.7604 20.875 23.9062C20.1458 24.0521 19.4375 24.2708 18.75 24.5625V36.9688C19.4792 36.6979 20.2031 36.5 20.9219 36.375C21.6406 36.25 22.375 36.1875 23.125 36.1875C23.875 36.1875 24.6094 36.25 25.3281 36.375C26.0469 36.5 26.7708 36.6979 27.5 36.9688ZM27.5 36.9688V24.5938V36.9688Z" fill="white"/>
</g>
<defs>
<filter id="filter0_d_119_71028" x="0" y="0" width="60" height="60" filterUnits="userSpaceOnUse" color-interpolation-filters="sRGB">
<feFlood flood-opacity="0" result="BackgroundImageFix"/>
<feColorMatrix in="SourceAlpha" type="matrix" values="0 0 0 0 0 0 0 0 0 0 0 0 0 0 0 0 0 0 127 0" result="hardAlpha"/>
<feOffset dy="1"/>
<feGaussianBlur stdDeviation="1"/>
<feComposite in2="hardAlpha" operator="out"/>
<feColorMatrix type="matrix" values="0 0 0 0 0 0 0 0 0 0 0 0 0 0 0 0 0 0 0.05 0"/>
<feBlend mode="normal" in2="BackgroundImageFix" result="effect1_dropShadow_119_71028"/>
<feBlend mode="normal" in="SourceGraphic" in2="effect1_dropShadow_119_71028" result="shape"/>
</filter>
</defs>
</svg>
